<?xml version="1.0" encoding="UTF-8" standalone="no"?>
<svg
   xmlns:dc="http://purl.org/dc/elements/1.1/"
   xmlns:cc="http://creativecommons.org/ns#"
   xmlns:rdf="http://www.w3.org/1999/02/22-rdf-syntax-ns#"
   xmlns:svg="http://www.w3.org/2000/svg"
   xmlns="http://www.w3.org/2000/svg"
   xmlns:xlink="http://www.w3.org/1999/xlink"
   version="1.1"
   id="svg4375"
   viewBox="0 0 240 240"
   height="256"
   width="256">
  <defs
     id="defs4377">
    <linearGradient
       id="linearGradient6458">
      <stop
         id="stop6454"
         offset="0"
         style="stop-color:#ffff21;stop-opacity:1;" />
      <stop
         style="stop-color:#ffff21;stop-opacity:0.61568627;"
         offset="0.56011719"
         id="stop6464" />
      <stop
         id="stop6456"
         offset="1"
         style="stop-color:#ffff21;stop-opacity:0;" />
    </linearGradient>
    <linearGradient
       id="linearGradient6448">
      <stop
         id="stop6444"
         offset="0"
         style="stop-color:#ff800e;stop-opacity:1;" />
      <stop
         style="stop-color:#ff800e;stop-opacity:0.70588235;"
         offset="0.56011719"
         id="stop6462" />
      <stop
         id="stop6446"
         offset="1"
         style="stop-color:#ff800e;stop-opacity:0;" />
    </linearGradient>
    <radialGradient
       gradientUnits="userSpaceOnUse"
       r="128"
       fy="128"
       fx="128"
       cy="128"
       cx="128"
       id="radialGradient6452"
       xlink:href="#linearGradient6448" />
    <radialGradient
       gradientUnits="userSpaceOnUse"
       r="128"
       fy="128"
       fx="128"
       cy="128"
       cx="128"
       id="radialGradient6460"
       xlink:href="#linearGradient6458" />
  </defs>
  <metadata
     id="metadata4380">
    <rdf:RDF>
      <cc:Work
         rdf:about="">
        <dc:format>image/svg+xml</dc:format>
        <dc:type
           rdf:resource="http://purl.org/dc/dcmitype/StillImage" />
        <dc:title></dc:title>
      </cc:Work>
    </rdf:RDF>
  </metadata>
  <g
     transform="translate(-46.008093,-252.97808)"
     id="layer1">
    <circle
       style="opacity:1;fill:#19c5f1;fill-opacity:1;stroke:none;stroke-width:4.73886299;stroke-linecap:round;stroke-linejoin:bevel;stroke-miterlimit:4;stroke-dasharray:none;stroke-dashoffset:0;stroke-opacity:1"
       id="circle4889"
       cx="166.00812"
       cy="399.33246"
       r="26.52743" />
    <circle
       r="22.269709"
       cy="400.35031"
       cx="167.18138"
       id="circle4891"
       style="opacity:1;fill:#55d4f5;fill-opacity:1;stroke:none;stroke-width:3.97826385;stroke-linecap:round;stroke-linejoin:bevel;stroke-miterlimit:4;stroke-dasharray:none;stroke-dashoffset:0;stroke-opacity:1" />
    <circle
       r="15.539409"
       cy="399.33246"
       cx="166.00812"
       id="path4887"
       style="opacity:1;fill:#000000;fill-opacity:1;stroke:none;stroke-width:2.77596164;stroke-linecap:round;stroke-linejoin:bevel;stroke-miterlimit:4;stroke-dasharray:none;stroke-dashoffset:0;stroke-opacity:1" />
    <path
       style="fill:#000000;stroke-width:0.20440322;fill-opacity:1"
       d="m 48.679725,467.00488 c 0,-0.0849 2.376004,-4.23634 7.528743,-13.15437 9.535959,-16.50399 9.069019,-15.69473 19.546854,-33.87982 2.785316,-4.83415 5.366431,-9.29525 5.735782,-9.91356 0.65994,-1.10477 5.590916,-9.63655 6.379352,-11.03778 0.221372,-0.39348 2.128958,-3.7048 4.238978,-7.35852 3.827223,-6.62706 4.598106,-7.95927 7.510548,-12.97959 0.847888,-1.4615 1.722598,-2.97918 1.943918,-3.37266 0.2213,-0.39348 0.93681,-1.63522 1.59006,-2.75945 0.65323,-1.12421 2.03199,-3.51573 3.06384,-5.31448 1.03186,-1.79875 2.54429,-4.42021 3.36092,-5.82548 0.81669,-1.40528 2.72932,-4.71662 4.2504,-7.35852 1.52107,-2.64192 3.93981,-6.82707 5.37501,-9.30035 1.43518,-2.47328 4.70523,-8.13014 7.26679,-12.5708 2.56151,-4.44066 5.66559,-9.82157 6.8979,-11.95759 1.2323,-2.13601 3.77642,-6.55112 5.65354,-9.81134 1.87713,-3.26024 5.83421,-10.11286 8.7935,-15.22805 2.95933,-5.1152 6.06626,-10.49612 6.90431,-11.95759 0.83806,-1.46148 2.19301,-3.80701 3.01088,-5.21228 0.81794,-1.40528 1.74994,-3.023 2.07111,-3.59496 2.09086,-3.72358 6.09212,-10.50886 6.19702,-10.50886 0.17807,0 0.62687,0.76819 11.70265,20.03151 1.51908,2.64192 3.61592,6.27518 4.65971,8.07393 1.04384,1.79874 2.87954,4.9721 4.07939,7.05191 1.19985,2.0798 3.26986,5.66708 4.59999,7.97172 1.33016,2.30465 4.27619,7.40962 6.54678,11.34439 2.27057,3.93476 6.54712,11.33926 9.50334,16.45445 2.95625,5.11518 5.53151,9.57629 5.72275,9.91356 0.19124,0.33727 1.38781,2.40685 2.65898,4.59907 1.27118,2.19222 2.46989,4.26769 2.66375,4.61215 0.19391,0.34445 1.04049,1.81614 1.88133,3.27044 0.84077,1.4543 2.42932,4.20786 3.52999,6.11903 1.10067,1.91117 2.80287,4.85458 3.7826,6.54091 0.97981,1.68632 2.65364,4.58373 3.71971,6.4387 1.06607,1.85495 2.60555,4.52242 3.42104,5.92769 0.8155,1.40527 2.72906,4.7166 4.25239,7.35852 1.5233,2.6419 3.27538,5.67729 3.89349,6.7453 2.26433,3.91236 5.69334,9.85258 9.0264,15.63685 3.19252,5.54045 4.70478,8.15992 11.41814,19.77794 4.52542,7.83155 7.95549,13.77684 10.81901,18.75207 1.52056,2.64189 3.24866,5.63131 3.84018,6.6431 2.57827,4.40981 5.61382,9.71414 5.61382,9.80966 0,0.0572 -52.79739,0.10387 -117.32742,0.10387 -64.53016,0 -117.327475,-0.0362 -117.327475,-0.0807 z m 43.825441,-3.96916 c 1.07147,-0.95594 13.491384,-12.12047 15.042694,-13.52223 0.95558,-0.86346 4.63482,-4.17237 8.17612,-7.35309 3.54131,-3.18073 7.26651,-6.53863 8.2783,-7.46201 1.0118,-0.92336 3.31136,-2.9925 5.11011,-4.59805 1.79875,-1.60556 3.29675,-2.98783 3.32892,-3.0717 0.0489,-0.12751 -5.0825,-3.0721 -5.35358,-3.0721 -0.0489,0 -0.90142,0.47199 -1.89401,1.04884 -2.03625,1.18347 -8.48841,4.91667 -11.61596,6.72102 -0.33732,0.19457 -2.72883,1.57535 -5.31448,3.06841 -7.68015,4.43474 -12.406247,7.15631 -17.169895,9.88761 -2.473305,1.41806 -4.634824,2.66448 -4.803496,2.76982 -0.537131,0.33553 -5.120055,2.98931 -16.352234,9.46877 -6.014548,3.46962 -10.999969,6.37122 -11.07868,6.44799 -0.07873,0.0768 7.36318,0.11906 16.537569,0.0939 15.961962,-0.0436 16.699146,-0.062 17.108622,-0.42729 z m 24.781204,0.14188 c 0.25614,-0.21257 1.24225,-1.55372 5.91866,-8.04956 0.97122,-1.34906 2.47728,-3.41866 3.34683,-4.59907 0.86959,-1.18044 3.31095,-4.53776 5.42524,-7.46072 2.11429,-2.92297 4.91619,-6.78619 6.22642,-8.58494 2.962,-4.0665 2.78048,-3.7406 2.21368,-3.97312 -0.25932,-0.10636 -1.32602,-0.56317 -2.37049,-1.01511 l -1.899,-0.82171 -9.34318,8.40482 c -5.1387,4.62264 -9.84922,8.87328 -10.46767,9.44588 -0.61856,0.57257 -3.33199,3.01561 -6.02995,5.42897 -2.6979,2.41338 -5.36523,4.81383 -5.9273,5.33431 -0.56214,0.52051 -1.88663,1.7193 -2.94326,2.66399 -1.05668,0.94466 -2.377878,2.1315 -2.93597,2.63742 l -1.014741,0.91981 9.762081,-0.0507 c 6.85095,-0.0356 9.84456,-0.11916 10.03865,-0.28023 z m 12.25818,0.25377 5.95101,-0.0249 0.91966,-2.09513 c 0.50576,-1.15234 3.38052,-7.61402 6.38834,-14.35934 3.0078,-6.7453 5.595,-12.55809 5.7493,-12.91733 l 0.28059,-0.65315 -1.96807,-0.62438 c -1.08242,-0.3434 -2.07365,-0.62437 -2.2026,-0.62437 -0.21603,0 -0.94126,0.94863 -4.30821,5.63538 -1.35306,1.88346 -5.61722,7.74131 -9.88433,13.57853 -1.52039,2.07979 -3.01964,4.14939 -3.33176,4.59907 -0.31207,0.44968 -1.6294,2.27329 -2.92739,4.05243 -1.29801,1.77918 -2.31928,3.30072 -2.2695,3.38126 0.0501,0.0805 0.44181,0.13079 0.87119,0.11173 0.42942,-0.0191 3.45866,-0.046 6.73177,-0.0597 z m 20.95084,-0.18926 c 0.0688,-0.0782 0.41842,-1.56808 0.77696,-3.31061 0.35851,-1.74252 1.6918,-8.04326 2.96287,-14.0016 1.27101,-5.95836 2.29581,-10.85402 2.27729,-10.87926 -0.0187,-0.0251 -0.93587,-0.21947 -2.03854,-0.43167 l -2.00488,-0.38581 -0.46632,1.04488 c -1.18598,2.65746 -12.40606,27.84525 -12.48444,28.02613 -0.10131,0.23407 10.77089,0.1726 10.97706,-0.0621 z m 27.10863,0.0193 c 0.0739,-0.22129 -0.38641,-2.48258 -2.92535,-14.3676 -0.39628,-1.85497 -1.20047,-5.6262 -1.78711,-8.38053 -0.90163,-4.23311 -1.12141,-5.00524 -1.42047,-4.99085 -0.19459,0.009 -1.0897,0.0324 -1.98908,0.0511 l -1.6352,0.0341 v 13.8951 13.89508 l 4.03695,0.0554 c 5.71543,0.0784 5.62887,0.0814 5.72026,-0.19181 z m 14.80321,0.1591 c 0.0738,-0.007 -0.6458,-1.73873 -1.59916,-3.84663 -0.95336,-2.10792 -1.90151,-4.24649 -2.10702,-4.75237 -0.20551,-0.50592 -0.64988,-1.51771 -0.98752,-2.24844 -0.33765,-0.73075 -2.28643,-5.09987 -4.33059,-9.70915 -2.04421,-4.60931 -3.75687,-8.4211 -3.80591,-8.47067 -0.0816,-0.0824 -2.65398,0.28789 -3.68015,0.52977 -0.49098,0.11576 -0.69062,-0.98575 2.68097,14.7884 0.85305,3.99097 1.84985,8.68202 2.21516,10.42456 l 0.66415,3.16826 4.89693,0.10213 c 4.22455,0.0882 5.3226,0.0908 6.05314,0.0141 z m 17.67973,-0.079 c 0.054,-0.054 -1.02861,-1.64817 -2.40584,-3.54258 -1.37722,-1.89439 -3.75181,-5.15854 -5.2768,-7.2536 -1.52504,-2.09509 -4.03364,-5.5444 -5.57471,-7.66514 -1.54103,-2.12071 -4.23938,-5.83346 -5.99636,-8.25051 -1.75699,-2.41707 -3.27277,-4.42341 -3.36848,-4.45852 -0.38106,-0.13988 -4.31894,1.22033 -4.21937,1.45745 0.0556,0.13289 0.80458,1.80531 1.66401,3.71647 0.85937,1.91117 1.68616,3.7508 1.83728,4.08808 0.48723,1.08714 7.06561,15.84687 8.42499,18.90294 0.72411,1.62771 1.39411,3.00742 1.48895,3.06604 0.21535,0.13305 13.2917,0.074 13.42633,-0.0606 z m 24.10468,0.0149 c 0.0752,-0.0752 -5.28073,-4.95734 -14.63288,-13.33837 -1.75625,-1.5739 -4.15294,-3.72892 -5.32597,-4.78891 -2.35503,-2.12815 -2.81702,-2.54492 -11.98334,-10.80991 l -6.37582,-5.74886 -1.90254,0.82326 c -1.0464,0.45279 -2.11463,0.91027 -2.37395,1.01665 -0.57072,0.23413 -0.73826,-0.0662 2.2159,3.97312 1.31556,1.79874 5.59046,7.68556 9.49981,13.08182 3.90941,5.39623 7.95475,10.96111 8.98973,12.36639 1.03498,1.40526 2.00717,2.75775 2.16044,3.00553 0.15328,0.24778 0.51218,0.47774 0.79754,0.51102 0.79042,0.0922 18.83457,0.004 18.93108,-0.0917 z m 38.83319,0.003 c 0.0426,-0.0426 -0.81657,-0.59284 -1.90936,-1.22263 -1.09277,-0.6298 -2.81468,-1.62478 -3.82653,-2.2111 -1.01179,-0.58628 -3.95516,-2.28486 -6.54087,-3.77458 -2.58573,-1.48974 -6.81686,-3.93146 -9.40258,-5.42607 -4.413,-2.55085 -8.93995,-5.16584 -18.90726,-10.92184 -2.30467,-1.3309 -4.46625,-2.57598 -4.8035,-2.76683 -0.33725,-0.19087 -1.94691,-1.12672 -3.57704,-2.07968 -1.63014,-0.95295 -3.69971,-2.14839 -4.59907,-2.65652 -0.89938,-0.50803 -3.70482,-2.1203 -6.23432,-3.58274 -2.52946,-1.46243 -5.41706,-3.13192 -6.41692,-3.71 -0.9998,-0.57806 -1.8674,-1.05104 -1.92794,-1.05104 -0.28422,0 -5.36,2.93104 -5.3076,3.0649 0.0329,0.0839 1.07886,1.06126 2.32457,2.17196 1.24566,1.1107 10.07194,9.05603 19.61397,17.6563 9.54199,8.60026 17.6357,15.86679 17.98602,16.14786 l 0.63686,0.51101 16.40702,-0.0356 c 9.0239,-0.0196 16.44192,-0.0706 16.48455,-0.1132 z M 164.16753,449.53193 V 435.6575 l -1.89072,-0.0993 c -1.03992,-0.0546 -1.95044,-0.0428 -2.02341,0.0261 -0.073,0.069 -0.64539,2.56288 -1.27202,5.54206 -1.89708,9.01981 -4.16311,19.64758 -4.47797,21.00244 l -0.29689,1.27751 h 4.98052 4.98049 z m 107.94275,5.23839 c -6.68739,-11.56881 -11.8441,-20.51638 -12.22209,-21.20685 -1.30307,-2.38027 -0.68711,-2.02339 -7.07465,-4.09902 -3.16826,-1.02953 -6.40436,-2.08331 -7.19132,-2.34175 -0.78696,-0.25844 -4.6042,-1.49788 -8.48273,-2.75432 -8.10416,-2.62529 -13.51469,-4.38572 -18.58941,-6.04847 -3.2224,-1.05584 -3.61028,-1.14086 -4.02824,-0.88302 -0.36543,0.22546 -3.25464,2.23068 -5.76181,3.99898 -0.18618,0.13134 -0.29268,0.27578 -0.23664,0.32096 0.0974,0.0785 6.19015,3.60259 13.17489,7.62028 3.70622,2.13188 11.71787,6.75673 18.40503,10.62468 4.16509,2.40911 6.68705,3.86396 15.9435,9.19736 4.03108,2.32268 6.3951,3.69045 9.81131,5.67661 1.3491,0.7843 2.8668,1.6571 3.37268,1.93954 0.50591,0.28242 1.4257,0.81307 2.04404,1.17924 2.11208,1.25081 3.98579,2.34353 4.02052,2.34462 0.0188,0 -1.41424,-2.50535 -3.18508,-5.56884 z M 60.196244,458.3247 c 2.771674,-1.62028 5.33767,-3.10341 14.033869,-8.11155 1.405295,-0.8093 4.026763,-2.32317 5.82552,-3.36418 1.798746,-1.04098 4.420214,-2.55798 5.825456,-3.37108 1.405305,-0.81309 4.762632,-2.74488 7.460707,-4.29287 2.698136,-1.54797 4.997692,-2.88187 5.110103,-2.96423 0.112421,-0.0823 0.618337,-0.37745 1.124211,-0.65578 0.50593,-0.27834 3.58728,-2.04888 6.84748,-3.93458 13.20933,-7.64011 14.96507,-8.6527 15.99436,-9.22428 0.5901,-0.3277 1.07301,-0.65571 1.07313,-0.72892 1.1e-4,-0.0732 -0.29872,-0.31641 -0.66409,-0.54043 -0.83636,-0.51279 -3.44543,-2.33988 -4.62846,-3.24127 -0.49399,-0.37635 -0.98844,-0.68428 -1.09875,-0.68428 -0.11036,0 -5.45509,1.70822 -11.87712,3.79604 -11.009395,3.57917 -23.729965,7.71231 -29.287169,9.51593 l -2.484904,0.80648 -0.812363,1.37241 c -0.446759,0.75483 -2.953024,5.09766 -5.56937,9.65075 -2.616407,4.55307 -5.693164,9.88799 -6.83732,11.85538 -2.970587,5.10795 -3.422745,5.9277 -3.269634,5.9277 0.07483,0 1.530331,-0.81505 3.234344,-1.81124 z M 172.34371,431.71693 c 15.2619,-1.57874 32.22912,-9.90135 47.11491,-23.11038 2.26875,-2.01318 6.08381,-5.81982 8.03965,-8.02181 l 1.06073,-1.19422 -0.61646,-0.77828 c -1.32341,-1.67095 -6.51632,-6.86587 -9.06874,-9.07229 -15.32169,-13.24446 -31.49234,-21.04305 -46.93895,-22.63715 -4.01154,-0.41398 -11.72424,-0.24293 -14.68528,0.32571 -0.18608,0.0357 -1.16615,0.21862 -2.17795,0.4064 -7.48934,1.39001 -15.75418,4.47545 -23.30195,8.69911 -9.65696,5.40391 -19.04094,12.78087 -26.09025,20.51014 -1.72708,1.89367 -2.17078,2.49714 -2.02898,2.75944 0.0999,0.18463 1.58154,1.78849 3.29272,3.56411 13.21848,13.71646 30.1133,23.85155 45.56862,27.3364 6.71772,1.5147 13.12537,1.90655 19.83193,1.21282 z m -12.05985,-2.47438 c -13.21905,-1.35958 -27.37556,-7.64082 -40.67622,-18.04803 -1.29283,-1.01162 -2.39663,-1.891 -2.45285,-1.95419 -0.0563,-0.0632 -0.93529,-0.81627 -1.95351,-1.67347 -2.25579,-1.89904 -8.26665,-7.88235 -8.26665,-8.22875 0,-0.37594 5.68026,-5.99893 8.55446,-8.4682 6.58559,-5.65782 13.96111,-10.6609 20.69437,-14.03777 15.2702,-7.6583 29.85914,-9.53335 44.57057,-5.72844 12.81088,3.31334 25.7701,10.69776 37.63506,21.44516 3.02809,2.74284 6.71057,6.51429 6.64259,6.80301 -0.19829,0.84213 -6.69898,7.07172 -11.0153,10.55589 -3.50391,2.82837 -9.08022,6.89483 -9.45481,6.89483 -0.0386,0 -0.74956,0.44733 -1.58023,0.99406 -2.0458,1.34662 -3.93862,2.39028 -8.04711,4.43704 -7.65195,3.81204 -15.07827,6.06288 -22.89714,6.9399 -2.87687,0.32268 -8.94041,0.35826 -11.75323,0.069 z m 10.93557,-3.9507 c 5.22583,-1.10025 9.68692,-3.53027 13.49737,-7.35218 2.89342,-2.90211 5.14904,-6.51603 6.40317,-10.25892 2.11707,-6.31839 1.56289,-14.22819 -1.40979,-20.12226 -1.72437,-3.41891 -4.97474,-7.26813 -8.05843,-9.54305 -3.06981,-2.26467 -7.24826,-4.0342 -11.24991,-4.76418 -2.45398,-0.44768 -6.90392,-0.40967 -9.33175,0.0797 -3.72482,0.75076 -7.92043,2.60297 -10.83498,4.78317 -3.02657,2.26408 -6.23869,6.08914 -7.93095,9.44438 -2.96786,5.8845 -3.51522,13.52661 -1.43661,20.05697 1.951,6.1293 6.97524,12.04244 12.87544,15.15329 4.12406,2.17444 8.04018,3.06097 12.97962,2.9384 1.61149,-0.04 3.57597,-0.22141 4.49682,-0.4153 z m -26.9313,-5.19813 c -4.00425,-4.17187 -6.55553,-9.03017 -7.84654,-14.94212 -0.30263,-1.38583 -0.37793,-2.5854 -0.37213,-5.92769 0.006,-3.79679 0.0575,-4.40141 0.54257,-6.43871 0.73962,-3.10668 1.99318,-6.22471 3.53374,-8.78984 1.51567,-2.52363 2.24569,-3.46468 4.49189,-5.79056 l 1.64462,-1.70298 -1.32863,0.50298 c -10.21307,3.86643 -22.04215,11.63506 -31.32748,20.57401 l -1.79455,1.72755 1.28187,1.30776 c 1.24702,1.27223 4.33218,4.04581 6.25727,5.62544 0.52377,0.42974 1.13625,0.93644 1.36109,1.12597 4.11081,3.46547 11.75288,8.43208 17.07662,11.09815 2.71853,1.36143 7.86434,3.63915 8.24335,3.64883 0.098,0.002 -0.69558,-0.90596 -1.76369,-2.01879 z m 44.47532,0.88166 c 10.30531,-4.37065 20.58651,-11.23224 29.1837,-19.4769 l 2.26524,-2.17238 -1.80774,-1.7489 c -9.0652,-8.7703 -21.26168,-16.78196 -31.29981,-20.56031 l -1.3301,-0.50065 1.98352,2.08611 c 3.93162,4.13489 6.47193,8.90533 7.71589,14.48946 0.41413,1.85907 0.4779,2.69319 0.47659,6.23429 0,3.1986 -0.0828,4.45959 -0.37549,5.79559 -1.29856,5.92867 -3.86383,10.82002 -7.85582,14.97907 -1.06441,1.10896 -1.87064,2.01631 -1.79159,2.01631 0.079,0 1.35502,-0.51377 2.83561,-1.14169 z m -99.4075,1.34139 c 12.84311,-4.15944 15.05576,-4.8785 19.77867,-6.42744 l 4.5506,-1.49244 -2.09775,-1.80579 c -1.15382,-0.99319 -2.87965,-2.55057 -3.83524,-3.46087 l -1.73744,-1.65508 -3.27042,0.34493 c -1.79877,0.1897 -6.121905,0.63691 -9.606938,0.99378 -3.485094,0.35688 -6.534793,0.69024 -6.777126,0.74079 -0.283547,0.0592 -0.693814,0.54768 -1.150807,1.37039 -0.672217,1.21005 -1.354781,2.39421 -5.155067,8.94359 -2.322349,4.00227 -3.780281,6.56496 -3.780281,6.64491 0,0.0384 1.218781,-0.3316 2.70836,-0.82223 1.489587,-0.49063 6.157648,-2.00917 10.373439,-3.37454 z m 164.29234,0.48121 c -1.16972,-2.00462 -3.35311,-5.78509 -4.85191,-8.40102 -1.98164,-3.45861 -2.84214,-4.78046 -3.15404,-4.845 -0.23592,-0.0489 -3.18837,-0.37085 -6.56105,-0.71564 -3.37261,-0.34477 -7.37382,-0.76118 -8.89153,-0.92532 -4.36867,-0.47249 -4.22529,-0.4942 -5.52585,0.83676 -0.61447,0.62881 -2.24403,2.11242 -3.62121,3.2969 -1.3771,1.18446 -2.50393,2.22746 -2.50393,2.31776 0,0.0903 0.20699,0.22385 0.45995,0.29678 0.49144,0.14172 5.51147,1.76285 12.0087,3.87799 2.1922,0.71367 7.43512,2.41477 11.65098,3.78022 4.21579,1.36545 8.86083,2.87817 10.32235,3.3616 1.46145,0.48343 2.68806,0.85303 2.7258,0.82133 0.0376,-0.0316 -0.88852,-1.69775 -2.05826,-3.70236 z M 94.261633,405.0452 c 5.849847,-0.59924 8.209487,-0.88082 8.321667,-0.99299 0.0444,-0.0444 -0.84988,-1.10543 -1.98727,-2.35783 l -2.067965,-2.27709 0.370706,-0.48288 c 0.203922,-0.26559 1.137239,-1.32861 2.073999,-2.36227 0.93678,-1.03366 1.66697,-1.91565 1.6227,-1.95997 -0.0975,-0.0974 -7.351262,-0.93735 -7.423947,-0.85961 -0.09485,0.10152 -2.758823,4.69264 -4.526437,7.80101 -0.965525,1.69786 -1.8911,3.29398 -2.056827,3.54692 -0.28326,0.43228 -0.272286,0.45986 0.182089,0.45881 0.265861,-5.8e-4 2.736948,-0.23195 5.491285,-0.5141 z m 149.050847,-0.14911 c -0.47563,-0.78747 -3.02322,-5.20428 -4.96006,-8.59957 -0.75816,-1.329 -1.41946,-2.45736 -1.46959,-2.5075 -0.10731,-0.10732 -7.34056,0.69977 -7.47481,0.83403 -0.0506,0.0503 0.6753,0.94512 1.61252,1.98847 0.93717,1.04333 1.87923,2.09721 2.09343,2.34194 l 0.38948,0.44496 -2.07656,2.28654 c -1.14211,1.25758 -2.03831,2.32479 -1.99153,2.37157 0.0466,0.0468 2.19028,0.31199 4.76332,0.58934 2.57305,0.27736 5.3221,0.58426 6.10906,0.68201 0.78696,0.0977 1.87525,0.19004 2.41839,0.20511 l 0.98759,0.0273 z M 106.84206,390.41364 c 0.77508,-0.80437 4.78945,-4.40723 6.17435,-5.54141 0.36578,-0.29956 0.59573,-0.58574 0.51099,-0.63592 -0.0847,-0.0502 -2.49956,-0.84824 -5.36638,-1.77348 -2.86669,-0.92522 -5.26588,-1.71359 -5.33141,-1.7519 -0.11214,-0.0656 -1.09897,1.57346 -4.22887,7.02326 -0.728864,1.26913 -1.268325,2.36441 -1.198759,2.43396 0.06949,0.0695 1.943898,0.33081 4.165209,0.58059 2.22136,0.24976 4.13514,0.46521 4.25285,0.47878 0.11769,0.0135 0.57764,-0.35268 1.02202,-0.81388 z m 124.12085,0.24606 c 1.94288,-0.20605 3.58296,-0.42503 3.64457,-0.48663 0.10646,-0.10646 -0.32832,-0.9628 -1.52789,-3.00879 -0.60323,-1.02887 -0.6425,-1.09706 -2.44136,-4.23792 l -1.28896,-2.25057 -5.25191,1.70736 c -2.88858,0.93903 -5.32097,1.70905 -5.40525,1.71112 -0.43068,0.0108 0.0779,0.55104 2.55503,2.715 1.48958,1.30127 3.15489,2.8232 3.70072,3.3821 0.89533,0.91684 1.06509,1.0077 1.73737,0.92954 0.40982,-0.0475 2.33474,-0.25519 4.27768,-0.46121 z M 119.71039,379.68928 c 1.34876,-0.96334 2.75876,-1.94129 3.13336,-2.17326 0.5598,-0.34666 0.63261,-0.46746 0.40879,-0.67859 -0.14974,-0.14128 -1.78994,-1.12621 -3.6449,-2.18876 -1.85496,-1.06254 -4.83544,-2.77739 -6.62328,-3.81078 -1.7879,-1.03338 -3.3354,-1.85062 -3.439,-1.81609 -0.18199,0.0606 -4.85914,8.08219 -4.85914,8.33357 0,0.13795 11.77794,4.04696 12.26472,4.07056 0.16895,0.008 1.41075,-0.7733 2.75945,-1.73665 z m 100.53825,0.0895 c 2.82573,-0.91409 5.57456,-1.79482 6.10855,-1.9572 0.53406,-0.1624 0.97093,-0.36166 0.97093,-0.44282 0,-0.2734 -4.66875,-8.29358 -4.86618,-8.3594 -0.10754,-0.0358 -0.64812,0.20174 -1.20133,0.52792 -0.55321,0.32619 -1.41497,0.82544 -1.91492,1.10945 -4.85164,2.75585 -10.36162,5.97039 -10.57013,6.16667 -0.20415,0.1921 0.16139,0.53146 1.73742,1.61303 1.09778,0.75335 2.45579,1.73274 3.01793,2.17638 0.56212,0.44365 1.14762,0.81143 1.30106,0.81728 0.15351,0.005 2.59102,-0.73723 5.41667,-1.65131 z m -90.61344,-6.40217 c 2.92392,-1.64875 2.97399,-1.68017 2.84987,-1.78828 -0.49399,-0.43015 -10.74064,-9.64855 -11.44661,-10.29795 -3.77113,-3.46893 -4.60573,-4.14371 -4.83186,-3.90664 -0.12805,0.1342 -1.25998,2.02919 -2.51547,4.21106 -1.84752,3.21077 -2.23177,4.01384 -2.01563,4.21254 0.14686,0.13504 1.96869,1.21822 4.04848,2.40708 2.07978,1.18886 5.43712,3.12584 7.46071,4.30443 2.02358,1.17857 3.77653,2.15045 3.89548,2.15973 0.11889,0.009 1.26867,-0.57662 2.55503,-1.30197 z m 79.23111,-0.89839 c 2.11588,-1.21947 5.50265,-3.16515 7.52623,-4.32374 2.02359,-1.1586 3.80148,-2.21794 3.95084,-2.35412 0.22182,-0.20223 -0.16839,-1.01133 -2.12878,-4.41449 -1.32016,-2.29182 -2.4268,-4.20087 -2.45916,-4.24236 -0.0654,-0.0839 -0.45454,0.2567 -5.80641,5.08333 -4.20363,3.79109 -7.01173,6.3092 -9.02395,8.0921 -0.75001,0.66454 -1.37092,1.2672 -1.37973,1.33924 -0.008,0.0721 1.01872,0.7011 2.28348,1.39789 1.26476,0.6968 2.38692,1.35069 2.49371,1.45313 0.10689,0.10244 0.30729,0.18623 0.4455,0.18623 0.13823,0 1.98245,-0.99774 4.09827,-2.21721 z m -70.52475,-3.42488 c 1.21958,-0.51745 2.28707,-1.00561 2.3722,-1.08483 0.0851,-0.0792 -0.38583,-0.87461 -1.04657,-1.76754 -0.6608,-0.89292 -3.32914,-4.5669 -5.9297,-8.16439 -2.60054,-3.5975 -5.59899,-7.73667 -6.66328,-9.19816 -1.06432,-1.46148 -2.24813,-3.10036 -2.63073,-3.64198 l -0.69569,-0.98473 -0.63927,1.03891 c -0.35156,0.57139 -0.63924,1.07042 -0.63924,1.10895 0,0.0386 -0.9657,1.71579 -2.146,3.72728 l -2.146,3.65725 1.58386,1.46957 c 1.46009,1.35468 16.26165,14.73848 16.33201,14.76763 0.017,0.007 1.02885,-0.41051 2.24841,-0.92796 z m 64.62409,-5.43851 c 3.89975,-3.50864 7.13644,-6.42904 7.19264,-6.48981 0.0563,-0.0607 0.91012,-0.83476 1.89753,-1.72001 1.74573,-1.56501 1.78681,-1.62265 1.48577,-2.0821 -0.17027,-0.25989 -0.5062,-0.82333 -0.7465,-1.25209 -0.24029,-0.42876 -0.96694,-1.69937 -1.61484,-2.82359 -0.64783,-1.12422 -1.36103,-2.36596 -1.58489,-2.75944 -0.99628,-1.75109 -1.18263,-2.04153 -1.31073,-2.04274 -0.0749,-5.7e-4 -0.98997,1.17147 -2.03335,2.60485 -9.05425,12.43828 -14.9224,20.57647 -14.95786,20.74416 -0.0307,0.14458 3.90537,2.04875 4.51813,2.18584 0.0352,0.007 3.25443,-2.85643 7.1541,-6.36507 z m -56.07021,2.30836 c 1.28051,-0.39576 1.82047,-0.65563 1.77654,-0.85495 -0.0347,-0.1575 -2.19033,-5.0694 -4.79026,-10.91532 -2.59992,-5.84594 -5.29571,-11.91671 -5.99062,-13.49062 -2.08938,-4.7322 -4.81394,-10.79631 -5.07174,-11.28833 -0.22523,-0.4299 -0.35281,-0.26856 -1.85639,2.3473 -0.888,1.54491 -2.10457,3.61911 -2.70347,4.60931 -0.5989,0.99021 -1.08891,1.83444 -1.08891,1.87609 0,0.0417 -0.33072,0.63085 -0.7349,1.30938 l -0.7349,1.23366 2.62561,3.59453 c 1.44411,1.97698 2.76241,3.79695 2.92961,4.04436 0.16714,0.2474 1.08698,1.51929 2.04399,2.82642 0.95706,1.30712 2.52194,3.45737 3.47754,4.77834 2.33444,3.2271 3.8845,5.35623 5.50537,7.56209 0.74348,1.01181 1.51266,2.09258 1.70936,2.40174 0.43517,0.68401 0.58576,0.68225 2.90317,-0.034 z m 42.12632,-1.36503 c 0.77639,-1.07864 1.96351,-2.72864 2.63801,-3.66666 0.67454,-0.93804 3.06151,-4.21768 5.30436,-7.2881 2.2429,-3.07042 5.25998,-7.21213 6.70466,-9.20381 l 2.62676,-3.62121 -3.42219,-5.93646 c -1.88218,-3.26507 -3.48345,-5.86666 -3.55841,-5.78133 -0.0749,0.0853 -0.48591,0.98296 -0.91324,1.99475 -0.42738,1.01179 -0.85231,1.97761 -0.94432,2.14624 -0.15539,0.28472 -4.37732,9.7537 -6.10623,13.69501 -1.50839,3.43865 -6.58964,14.84765 -7.19177,16.14787 -1.03704,2.23919 -1.02737,2.18194 -0.40772,2.42302 0.93848,0.36513 3.1903,1.02829 3.53267,1.04034 0.18458,0.006 0.93778,-0.83869 1.73742,-1.94966 z m -33.51707,-0.70478 1.04629,-0.21356 -0.29234,-1.3708 c -0.16073,-0.75394 -0.55475,-2.61254 -0.87546,-4.13024 -0.32076,-1.5177 -1.10102,-5.19696 -1.73391,-8.17614 -0.63288,-2.97916 -1.93078,-9.09594 -2.88414,-13.59281 -0.95343,-4.49687 -1.86548,-8.77401 -2.02676,-9.50475 -0.16136,-0.73073 -0.94354,-4.41 -1.73817,-8.17613 -2.06048,-9.76503 -2.27565,-10.68863 -2.44478,-10.4953 -0.0832,0.0951 -1.28652,2.15054 -2.67397,4.56761 -1.38752,2.41707 -3.51738,6.11884 -4.73315,8.22614 -1.21571,2.1073 -2.21039,3.88389 -2.21039,3.94796 0,0.11841 17.06651,38.5478 17.38966,39.157 0.1854,0.34951 0.35748,0.33655 3.17712,-0.23898 z m 24.63241,-0.75783 c 0.33754,-0.75884 0.82818,-1.83963 1.09029,-2.40174 0.26217,-0.5621 2.45284,-5.48312 4.86817,-10.93557 2.41527,-5.45245 5.87405,-13.2407 7.68616,-17.30722 1.81212,-4.06652 3.29471,-7.44906 3.29471,-7.51672 0,-0.0677 -0.70506,-1.33959 -1.56682,-2.82649 -2.00353,-3.45696 -5.74033,-9.94193 -7.07862,-12.2844 -0.81532,-1.42722 -1.06584,-1.73207 -1.17582,-1.43083 -0.0769,0.21055 -0.43284,1.76254 -0.791,3.44887 -0.35809,1.68633 -1.14893,5.41157 -1.75732,8.27832 -0.60839,2.86675 -1.57733,7.41985 -2.1531,10.11796 -0.57583,2.69813 -1.3562,6.37739 -1.73413,8.17613 -0.378,1.79875 -1.2958,6.12188 -2.03956,9.60694 -0.74384,3.48509 -1.66298,7.80821 -2.04262,9.60697 -0.37959,1.79874 -0.82158,3.88731 -0.98214,4.64125 l -0.29194,1.3708 1.14848,0.22186 c 0.63169,0.12202 1.47042,0.3005 1.86394,0.3966 0.39345,0.0961 0.79015,0.18424 0.88153,0.19587 0.0913,0.0116 0.44227,-0.59975 0.77979,-1.3586 z m -16.02198,-0.14638 c 0.0431,-0.0335 0.0656,-33.20916 0.0501,-75.3295 l -0.005,-13.38842 -0.83647,1.43083 c -0.46,0.78695 -2.0578,3.54639 -3.55056,6.13209 -1.49283,2.5857 -3.75187,6.49491 -5.0202,8.68715 -1.26827,2.19222 -3.43792,5.95363 -4.8214,8.35869 l -2.51542,4.37285 0.49979,2.27025 c 0.2749,1.24864 1.33755,6.22547 2.36145,11.05961 1.80694,8.53085 3.99175,18.81163 5.01718,23.60858 0.99816,4.66945 3.59718,16.93182 4.23303,19.9717 l 0.65017,3.10844 1.94373,-0.12195 c 1.06907,-0.067 1.96617,-0.13922 1.99357,-0.16032 z m 8.36976,-2.81746 c 0.69539,-3.3248 3.38437,-16.00672 4.25812,-20.08262 0.28923,-1.34906 0.88598,-4.1545 1.32608,-6.2343 0.44016,-2.0798 1.03885,-4.88524 1.33039,-6.23431 0.29161,-1.34904 0.83959,-3.92453 1.21782,-5.72328 1.24838,-5.93749 2.97785,-14.06699 3.48441,-16.37869 l 0.49848,-2.27487 -3.22963,-5.59465 c -1.7763,-3.07707 -5.52283,-9.5659 -8.3256,-14.41965 l -5.09595,-8.825 -0.10214,13.21967 c -0.0563,7.27082 -0.0787,27.21964 -0.0501,44.33074 l 0.0523,31.11108 1.37841,0.0714 c 0.75816,0.0393 1.65447,0.0895 1.99177,0.11153 l 0.61328,0.04 z"
       id="path4711" />
    <path
       id="path4753"
       d="m 185.77543,376.51246 1.98292,2.08631 c 0.98291,1.03372 1.87918,2.1056 2.68965,3.22155 0.81048,1.11595 1.53552,2.27532 2.17653,3.47907 0.64102,1.20374 1.19828,2.45261 1.6728,3.74971 0.47452,1.29711 0.8675,2.64314 1.17848,4.03918 0.41415,1.85907 0.47685,2.69151 0.47553,6.23261 0,3.1986 -0.0832,4.46055 -0.3759,5.79655 -0.32465,1.48217 -0.72685,2.89993 -1.21232,4.25719 -0.48548,1.35728 -1.05344,2.65443 -1.70476,3.89633 -0.65131,1.2419 -1.38633,2.42758 -2.20848,3.56364 -0.82216,1.13607 -1.73112,2.22127 -2.72912,3.26103 -1.06441,1.10897 -1.87026,2.01676 -1.79122,2.01676 0.079,0 1.35379,-0.51296 2.83437,-1.14088 2.57633,-1.09266 5.1513,-2.34233 7.69867,-3.72904 2.54739,-1.38672 5.06672,-2.91178 7.53327,-4.55793 2.46656,-1.64616 4.87988,-3.41246 7.21374,-5.28344 2.33387,-1.87097 4.58892,-3.84628 6.73822,-5.90745 l 2.26486,-2.17276 -1.80625,-1.748 c -2.2663,-2.19257 -4.72891,-4.33764 -7.30396,-6.38109 -2.57506,-2.04345 -5.26396,-3.9845 -7.98248,-5.77024 -2.71852,-1.78575 -5.46624,-3.41664 -8.16292,-4.8361 -2.69667,-1.41946 -5.34137,-2.62845 -7.85091,-3.57304 z"
       style="opacity:1;fill:#ffffff;fill-opacity:1;stroke:none;stroke-width:2.88700008;stroke-linecap:round;stroke-linejoin:bevel;stroke-miterlimit:4;stroke-dasharray:none;stroke-dashoffset:0;stroke-opacity:1" />
    <path
       id="path4751"
       d="m 146.28405,376.49742 -1.32885,0.50372 c -2.55327,0.96661 -5.20763,2.17637 -7.89791,3.58807 -2.69027,1.4117 -5.41676,3.02522 -8.11404,4.79664 -2.69729,1.77141 -5.36495,3.70004 -7.93926,5.7458 -2.5743,2.04577 -5.05593,4.20839 -7.37726,6.44313 l -1.79498,1.72731 1.28186,1.30817 c 1.24702,1.27223 4.33384,4.04588 6.25893,5.62552 0.52378,0.42974 1.13596,0.93632 1.3608,1.12585 2.0554,1.73273 4.99226,3.84109 8.08209,5.84918 3.08984,2.0081 6.33182,3.9147 8.99369,5.24773 2.71853,1.36143 7.86473,3.64042 8.24373,3.6501 0.098,0.002 -0.69491,-0.90582 -1.76302,-2.01865 -1.00106,-1.04296 -1.9123,-2.13028 -2.73476,-3.26479 -0.82245,-1.1345 -1.55674,-2.31671 -2.20659,-3.55424 -0.64987,-1.23753 -1.21583,-2.52927 -1.69912,-3.88129 -0.4833,-1.35202 -0.88393,-2.76417 -1.20668,-4.24215 -0.30263,-1.38584 -0.37795,-2.58584 -0.37215,-5.92813 0.006,-3.79679 0.0581,-4.40206 0.54319,-6.43937 0.36981,-1.55333 0.86764,-3.10891 1.46605,-4.59739 0.59842,-1.48848 1.29724,-2.90886 2.06751,-4.19142 0.75784,-1.26181 1.31892,-2.12825 1.97166,-2.9697 0.65274,-0.84145 1.39739,-1.65827 2.52049,-2.82122 z"
       style="opacity:1;fill:#ffffff;fill-opacity:1;stroke:none;stroke-width:2.88700008;stroke-linecap:round;stroke-linejoin:bevel;stroke-miterlimit:4;stroke-dasharray:none;stroke-dashoffset:0;stroke-opacity:1" />
    <path
       id="path4741"
       d="m 164.19998,366.69364 c -2.79975,0.0621 -5.4682,0.24573 -6.94872,0.53004 -0.18607,0.0357 -1.16661,0.2182 -2.17841,0.40599 -1.87233,0.3475 -3.79422,0.80256 -5.74016,1.35328 -1.94595,0.55072 -3.91574,1.19753 -5.88866,1.93406 -1.97292,0.73654 -3.94855,1.56293 -5.90181,2.46786 -1.95325,0.90493 -3.88518,1.88935 -5.77212,2.94526 -2.41424,1.35099 -4.81133,2.82401 -7.15923,4.39629 -2.34791,1.57229 -4.64701,3.24352 -6.86415,4.98646 -2.21714,1.74295 -4.35163,3.55769 -6.37358,5.42066 -2.02195,1.86295 -3.93085,3.77401 -5.69318,5.70632 -1.72707,1.89367 -2.16984,2.4969 -2.02804,2.7592 0.0999,0.18463 1.58181,1.78802 3.29299,3.56364 3.30461,3.42911 6.83753,6.63533 10.52176,9.56883 3.68422,2.93349 7.5181,5.5954 11.42207,7.93736 1.95198,1.17099 3.92299,2.26156 5.89993,3.26667 1.97694,1.00513 3.96124,1.92441 5.94316,2.75168 1.98192,0.82727 3.96122,1.56165 5.92812,2.19908 1.96692,0.63744 3.92103,1.17706 5.85294,1.61267 3.35886,0.75734 6.64036,1.23539 9.92031,1.43597 3.27994,0.20059 6.55763,0.12508 9.9109,-0.22179 1.90774,-0.19733 3.84293,-0.50148 5.79656,-0.90594 1.95363,-0.40446 3.92647,-0.9106 5.91121,-1.51492 1.98473,-0.60433 3.98159,-1.30629 5.98263,-2.10323 2.00105,-0.79693 4.00638,-1.68857 6.00895,-2.67085 2.00256,-0.98228 4.00273,-2.05555 5.99202,-3.21592 1.9893,-1.16038 3.9669,-2.40723 5.92813,-3.73844 3.92245,-2.66243 7.77392,-5.65947 11.49537,-8.96173 2.26876,-2.01318 6.0849,-5.81996 8.04075,-8.02195 l 1.06007,-1.19352 -0.61649,-0.77814 c -1.32342,-1.67095 -6.51645,-6.8662 -9.06887,-9.07262 -3.83042,-3.31111 -7.7131,-6.28306 -11.62506,-8.90159 -3.91196,-2.61852 -7.85363,-4.88485 -11.79799,-6.78707 -1.97217,-0.95113 -3.94391,-1.81116 -5.91496,-2.57876 -1.97106,-0.76759 -3.9399,-1.44129 -5.9037,-2.0224 -1.96378,-0.58112 -3.92323,-1.06875 -5.87361,-1.46042 -1.95038,-0.39167 -3.89204,-0.68789 -5.82286,-0.88715 -2.00578,-0.20699 -4.93652,-0.26696 -7.73627,-0.20488 z m 0.0132,2.52613 c 1.84157,-0.0587 3.68082,-0.0277 5.51838,0.0921 1.83756,0.1198 3.67419,0.32985 5.51086,0.62776 1.83667,0.29791 3.67381,0.68408 5.51275,1.15969 3.20272,0.82833 6.41397,1.91045 9.61581,3.2366 3.20185,1.32615 6.39353,2.89705 9.55567,4.69889 3.16215,1.80185 6.29539,3.83624 9.37899,6.09165 3.08361,2.25541 6.11766,4.73176 9.0839,7.41861 3.02809,2.74284 6.71033,6.5134 6.64235,6.80212 -0.0991,0.42106 -1.77259,2.18908 -3.9621,4.28727 -2.1895,2.09818 -4.89393,4.52624 -7.0521,6.26832 -3.5039,2.82837 -9.08146,6.8961 -9.45605,6.8961 -0.0386,0 -0.74817,0.44755 -1.57882,0.99428 -2.04581,1.34663 -3.9398,2.38901 -8.04828,4.43576 -1.91298,0.95301 -3.81189,1.80856 -5.70633,2.56936 -1.89445,0.76078 -3.78293,1.4273 -5.67814,2.00173 -1.89522,0.57441 -3.79667,1.0571 -5.71198,1.45101 -1.91531,0.39391 -3.8456,0.69985 -5.80032,0.91911 -2.87687,0.32267 -8.94004,0.35694 -11.75287,0.0677 -3.30476,-0.3399 -6.66734,-0.98763 -10.06126,-1.93031 -3.39393,-0.94267 -6.81842,-2.18027 -10.24548,-3.70084 -3.42704,-1.52058 -6.85825,-3.32259 -10.26238,-5.39621 -3.40412,-2.07363 -6.78121,-4.41835 -10.10638,-7.02015 -1.29283,-1.01162 -2.39661,-1.89155 -2.45282,-1.95474 -0.0563,-0.0632 -0.93652,-0.81561 -1.95474,-1.67281 -2.25579,-1.89904 -8.26629,-7.8823 -8.26629,-8.2287 0,-0.37594 5.67966,-6.00001 8.55386,-8.46928 3.2928,-2.82892 6.78372,-5.49337 10.29246,-7.87347 3.50873,-2.38011 7.03672,-4.47464 10.40335,-6.16307 3.81755,-1.91457 7.59254,-3.46802 11.33749,-4.6613 1.87247,-0.59664 3.73641,-1.10364 5.59544,-1.52057 1.85904,-0.41692 3.71288,-0.74352 5.56162,-0.98113 1.84873,-0.23761 3.69184,-0.38675 5.53341,-0.44545 z"
       style="opacity:1;fill:#e6e6e6;fill-opacity:1;stroke:none;stroke-width:2.88700008;stroke-linecap:round;stroke-linejoin:bevel;stroke-miterlimit:4;stroke-dasharray:none;stroke-dashoffset:0;stroke-opacity:1" />
    <g
       transform="matrix(1.026489,0,0,1.026489,-4.3973568,-9.6816399)"
       style="fill:#ffff21;fill-opacity:1"
       id="g4881">
      <path
         style="opacity:1;fill:#ffff21;fill-opacity:1;stroke:none;stroke-width:3;stroke-linecap:round;stroke-linejoin:bevel;stroke-miterlimit:4;stroke-dasharray:none;stroke-dashoffset:0;stroke-opacity:1"
         d="m 142.10156,191.60938 c -0.0848,-0.0857 -2.75788,0.29747 -3.82422,0.54882 -0.12755,0.0301 -0.23698,-0.0173 -0.27343,0.14844 -0.0365,0.16573 -10e-4,0.54468 0.16015,1.43359 0.32231,1.77783 1.14666,5.58938 2.89844,13.78516 0.88644,4.14718 1.92312,9.02324 2.30273,10.83399 l 0.68946,3.29101 5.08789,0.10742 c 4.3899,0.0916 5.53188,0.0933 6.29101,0.0137 0.0767,-0.007 -0.67143,-1.80568 -1.66211,-3.99609 -0.99067,-2.19042 -1.9759,-4.41377 -2.18945,-4.93945 -0.21356,-0.52572 -0.67453,-1.5766 -1.02539,-2.33594 -0.35087,-0.75935 -2.37583,-5.30015 -4.5,-10.08984 -2.12422,-4.78972 -3.90411,-8.74928 -3.95508,-8.80078 z"
         id="path4805"
         transform="matrix(0.9375,0,0,0.9375,46.008093,252.97808)" />
      <path
         style="opacity:1;fill:#ffff21;fill-opacity:1;stroke:none;stroke-width:3;stroke-linecap:round;stroke-linejoin:bevel;stroke-miterlimit:4;stroke-dasharray:none;stroke-dashoffset:0;stroke-opacity:1"
         d="m 113.93164,191.44141 -0.48437,1.08593 c -1.23241,2.76148 -12.89122,28.93509 -12.97266,29.12305 -0.10528,0.24323 11.19201,0.17944 11.40625,-0.0644 0.0715,-0.0813 0.43406,-1.62872 0.80664,-3.43946 0.37254,-1.81073 1.75926,-8.35726 3.08008,-14.54882 1.32076,-6.19158 2.38449,-11.28043 2.36523,-11.30664 -0.0194,-0.0261 -0.97136,-0.22677 -2.11719,-0.44727 z"
         id="path4801"
         transform="matrix(0.9375,0,0,0.9375,46.008093,252.97808)" />
      <path
         style="opacity:1;fill:#ffff21;fill-opacity:1;stroke:none;stroke-width:3;stroke-linecap:round;stroke-linejoin:bevel;stroke-miterlimit:4;stroke-dasharray:none;stroke-dashoffset:0;stroke-opacity:1"
         d="m 96.972656,185.66406 -9.708984,8.73438 c -5.339829,4.80358 -10.23625,9.2214 -10.878906,9.8164 -0.642774,0.59498 -3.462063,3.13281 -6.265625,5.64063 -2.803499,2.50784 -5.574129,5.00211 -6.158203,5.54297 -0.584139,0.54088 -1.96061,1.78786 -3.058594,2.76953 -1.098048,0.98164 -2.470846,2.21452 -3.050782,2.74023 l -1.054687,0.95508 10.144531,-0.0527 c 7.119104,-0.037 10.229956,-0.12365 10.431641,-0.29102 0.266165,-0.22089 1.290934,-1.61514 6.150391,-8.36523 1.009226,-1.40187 2.572978,-3.55269 3.476562,-4.7793 0.903627,-1.22665 3.441627,-4.71459 5.638672,-7.75195 2.197045,-3.03738 5.107246,-7.05077 6.46875,-8.91993 1.538968,-2.11283 2.261428,-3.08484 2.525388,-3.55859 0.13198,-0.23687 0.15008,-0.34971 0.0977,-0.41797 -0.0524,-0.0683 -0.17502,-0.0919 -0.32227,-0.15234 -0.26947,-0.11052 -1.37753,-0.58506 -2.462888,-1.05469 z"
         id="path4793"
         transform="matrix(0.9375,0,0,0.9375,46.008093,252.97808)" />
      <path
         style="opacity:1;fill:#ffff21;fill-opacity:1;stroke:none;stroke-width:3;stroke-linecap:round;stroke-linejoin:bevel;stroke-miterlimit:4;stroke-dasharray:none;stroke-dashoffset:0;stroke-opacity:1"
         d="m 159.03516,185.66211 -1.97657,0.85547 c -1.08736,0.4705 -2.19732,0.9461 -2.46679,1.05664 -0.14827,0.0608 -0.27051,0.0857 -0.32227,0.15625 -0.0517,0.0705 -0.0334,0.18529 0.0996,0.42383 0.26607,0.47706 0.9905,1.4501 2.52539,3.54882 1.36705,1.86915 5.80873,7.98629 9.87109,13.59376 4.06244,5.60744 8.26631,11.38933 9.3418,12.8496 1.07549,1.46027 2.08487,2.86557 2.24414,3.12305 0.15928,0.25747 0.53355,0.49667 0.83008,0.53125 0.82136,0.0958 19.57159,0.004 19.67188,-0.0957 0.0782,-0.0782 -5.48689,-5.15031 -15.20508,-13.85938 -1.82499,-1.63551 -4.31621,-3.87509 -5.53516,-4.97656 -2.44721,-2.21144 -2.92803,-2.64588 -12.45312,-11.23437 z"
         id="path4789"
         transform="matrix(0.9375,0,0,0.9375,46.008093,252.97808)" />
      <path
         style="opacity:1;fill:#ffff21;fill-opacity:1;stroke:none;stroke-width:3;stroke-linecap:round;stroke-linejoin:bevel;stroke-miterlimit:4;stroke-dasharray:none;stroke-dashoffset:0;stroke-opacity:1"
         d="m 179.41406,173.93555 c -0.57362,-0.12574 -0.78284,-0.0812 -1,0.0527 -0.37973,0.23428 -3.38298,2.31874 -5.98828,4.15625 -0.19347,0.13648 -0.30432,0.28703 -0.24609,0.33399 0.10122,0.0816 6.43327,3.74302 13.6914,7.91796 3.85129,2.21533 12.1761,7.02167 19.125,11.04102 4.32812,2.5034 6.94961,4.01449 16.56836,9.55664 4.18887,2.41359 6.64538,3.83453 10.19532,5.89844 1.40189,0.815 2.97823,1.72213 3.5039,2.01562 0.52572,0.29348 1.48245,0.84411 2.125,1.22461 2.19474,1.29977 4.14165,2.43636 4.17774,2.4375 0.0195,0 -1.4704,-2.6037 -3.31055,-5.78711 -6.94914,-12.02162 -12.30838,-21.3196 -12.70117,-22.03711 -0.33852,-0.61835 -0.55104,-1.05949 -0.78516,-1.40625 -0.23412,-0.34676 -0.48873,-0.59876 -0.9082,-0.84179 -0.83894,-0.48608 -2.33943,-0.93328 -5.65821,-2.01172 -3.29226,-1.06983 -6.65489,-2.16504 -7.47265,-2.4336 -0.81776,-0.26855 -4.78411,-1.55571 -8.81445,-2.86132 -8.42137,-2.72806 -14.04307,-4.55733 -19.31641,-6.28516 -1.67427,-0.54858 -2.61193,-0.84496 -3.18555,-0.9707 z"
         id="path4779"
         transform="matrix(0.9375,0,0,0.9375,46.008093,252.97808)" />
      <path
         style="opacity:1;fill:#ffff21;fill-opacity:1;stroke:none;stroke-width:3;stroke-linecap:round;stroke-linejoin:bevel;stroke-miterlimit:4;stroke-dasharray:none;stroke-dashoffset:0;stroke-opacity:1"
         d="m 77.177734,173.75391 c -0.114677,0 -5.668399,1.77577 -12.341796,3.94531 -11.440315,3.71926 -24.658868,8.01445 -30.433594,9.88867 l -2.582032,0.83789 -0.84375,1.42578 c -0.464248,0.78438 -3.068355,5.29604 -5.787109,10.02735 -2.718815,4.73128 -5.91653,10.27591 -7.105469,12.32031 -3.086858,5.30787 -3.555584,6.16016 -3.396484,6.16016 0.07777,0 1.588664,-0.84764 3.359375,-1.88282 2.880158,-1.6837 5.547413,-3.22552 14.583984,-8.42968 1.460307,-0.84098 4.183575,-2.4124 6.052735,-3.49415 1.869158,-1.08172 4.594439,-2.65897 6.054687,-3.5039 1.460305,-0.84492 4.948273,-2.85236 7.751953,-4.46094 2.803741,-1.60856 5.193737,-2.9945 5.310547,-3.08008 0.116822,-0.0855 0.642294,-0.39241 1.167969,-0.68164 0.525728,-0.28922 3.727426,-2.12839 7.115234,-4.08789 13.726358,-7.93916 15.551515,-8.99198 16.621094,-9.58594 0.613195,-0.34052 1.115117,-0.68173 1.115234,-0.75781 1.18e-4,-0.0761 -0.311736,-0.32776 -0.691406,-0.56055 -0.869098,-0.53286 -3.57926,-2.43246 -4.808594,-3.36914 -0.513322,-0.39108 -1.027943,-0.71093 -1.142578,-0.71093 z"
         id="path4775"
         transform="matrix(0.9375,0,0,0.9375,46.008093,252.97808)" />
      <path
         style="opacity:1;fill:#ffff21;fill-opacity:1;stroke:none;stroke-width:3;stroke-linecap:round;stroke-linejoin:bevel;stroke-miterlimit:4;stroke-dasharray:none;stroke-dashoffset:0;stroke-opacity:1"
         d="m 201.65039,149.41602 c -0.11152,-0.11152 -7.62808,0.72571 -7.76758,0.86523 -0.0526,0.0523 0.70189,0.98222 1.67578,2.06641 0.97386,1.08417 1.9532,2.17928 2.17579,2.43359 l 0.40429,0.46289 -2.1582,2.375 c -1.18682,1.30681 -2.11892,2.41624 -2.07031,2.46484 0.0484,0.0486 2.27742,0.32508 4.95117,0.61329 2.67376,0.28822 5.52989,0.60741 6.34765,0.70898 0.81778,0.10155 1.94927,0.19723 2.51368,0.21289 l 1.02539,0.0273 -0.41602,-0.68945 c -0.49425,-0.81829 -3.14164,-5.40736 -5.1543,-8.93555 -0.78782,-1.38101 -1.47525,-2.55337 -1.52734,-2.60546 z"
         id="path4765"
         transform="matrix(0.9375,0,0,0.9375,46.008093,252.97808)" />
      <path
         style="opacity:1;fill:#ffff21;fill-opacity:1;stroke:none;stroke-width:3;stroke-linecap:round;stroke-linejoin:bevel;stroke-miterlimit:4;stroke-dasharray:none;stroke-dashoffset:0;stroke-opacity:1"
         d="m 54.392578,149.37695 c -0.09855,0.1055 -2.868282,4.87739 -4.705078,8.10743 -1.003322,1.76431 -1.964508,3.4227 -2.136719,3.68554 -0.14717,0.2246 -0.218436,0.34307 -0.193359,0.40625 0.02508,0.0632 0.146731,0.0709 0.382812,0.0703 0.276269,-5.9e-4 2.842935,-0.24196 5.705078,-0.53515 6.078815,-0.6227 8.531862,-0.91469 8.648438,-1.03125 0.04608,-0.0461 -0.882544,-1.14976 -2.064453,-2.45117 l -2.150391,-2.36524 0.386719,-0.50195 c 0.211904,-0.27599 1.180868,-1.38096 2.154297,-2.45508 0.97344,-1.07412 1.731552,-1.99106 1.685547,-2.03711 -0.101334,-0.10123 -7.637354,-0.97336 -7.712891,-0.89258 z"
         id="path4763"
         transform="matrix(0.9375,0,0,0.9375,46.008093,252.97808)" />
      <path
         style="opacity:1;fill:#ffff21;fill-opacity:1;stroke:none;stroke-width:3;stroke-linecap:round;stroke-linejoin:bevel;stroke-miterlimit:4;stroke-dasharray:none;stroke-dashoffset:0;stroke-opacity:1"
         d="m 69.328125,123.67773 c -0.189109,0.0629 -5.048828,8.39893 -5.048828,8.66016 0,0.14335 12.238306,4.20595 12.744141,4.23047 0.175562,0.009 1.465694,-0.80363 2.867187,-1.80469 1.401547,-1.00104 2.866601,-2.01677 3.255859,-2.25781 0.581707,-0.36022 0.658358,-0.48569 0.425782,-0.70508 -0.155606,-0.1468 -1.859547,-1.17125 -3.78711,-2.27539 -1.927562,-1.10413 -5.024988,-2.88515 -6.882812,-3.95898 -1.857878,-1.07383 -3.46656,-1.92456 -3.574219,-1.88868 z"
         id="path4745"
         transform="matrix(0.9375,0,0,0.9375,46.008093,252.97808)" />
      <path
         style="opacity:1;fill:#ffff21;fill-opacity:1;stroke:none;stroke-width:3;stroke-linecap:round;stroke-linejoin:bevel;stroke-miterlimit:4;stroke-dasharray:none;stroke-dashoffset:0;stroke-opacity:1"
         d="m 186.66406,123.67578 c -0.11174,-0.0372 -0.67318,0.20987 -1.24804,0.54883 -0.57486,0.33895 -1.47072,0.85722 -1.99024,1.15234 -5.04153,2.86372 -10.7677,6.20425 -10.98437,6.40821 -0.21214,0.19962 0.16892,0.55187 1.80664,1.67578 1.14074,0.78283 2.55258,1.8007 3.13672,2.26172 0.58412,0.46101 1.19211,0.84353 1.35156,0.84961 0.15952,0.005 2.69265,-0.76499 5.6289,-1.71485 2.93634,-0.94986 5.79277,-1.86642 6.34766,-2.03515 0.55497,-0.16875 1.00781,-0.37465 1.00781,-0.45899 0,-0.28409 -4.85147,-8.6191 -5.05664,-8.6875 z"
         id="path4743"
         transform="matrix(0.9375,0,0,0.9375,46.008093,252.97808)" />
      <path
         style="opacity:1;fill:#ffff21;fill-opacity:1;stroke:none;stroke-width:3;stroke-linecap:round;stroke-linejoin:bevel;stroke-miterlimit:4;stroke-dasharray:none;stroke-dashoffset:0;stroke-opacity:1"
         d="m 171.93164,98.140625 c -0.0779,-5.97e-4 -1.02906,1.215595 -2.11328,2.705075 -9.40864,12.92513 -15.50613,21.38239 -15.54297,21.55664 -0.0319,0.15024 4.05857,2.12903 4.69531,2.27149 0.0366,0.007 3.38129,-2.96732 7.4336,-6.61328 4.05239,-3.64598 7.41621,-6.681 7.47461,-6.74414 0.0585,-0.063 0.94659,-0.86721 1.97265,-1.78711 0.90703,-0.81313 1.37004,-1.23574 1.56836,-1.51368 0.19833,-0.27793 0.13102,-0.41167 -0.0254,-0.65039 -0.17694,-0.27005 -0.52568,-0.85523 -0.77539,-1.30078 -0.2497,-0.44553 -1.00448,-1.76732 -1.67773,-2.93554 -0.67319,-1.16823 -1.41387,-2.45832 -1.64649,-2.86719 -1.03527,-1.819639 -1.23016,-2.119836 -1.36328,-2.121095 z"
         id="path4733"
         transform="matrix(0.9375,0,0,0.9375,46.008093,252.97808)" />
      <path
         style="opacity:1;fill:#ffff21;fill-opacity:1;stroke:none;stroke-width:3;stroke-linecap:round;stroke-linejoin:bevel;stroke-miterlimit:4;stroke-dasharray:none;stroke-dashoffset:0;stroke-opacity:1"
         d="m 84.085938,97.896484 -0.664063,1.080078 c -0.365323,0.59376 -0.664063,1.112308 -0.664063,1.152348 0,0.0401 -1.003972,1.78282 -2.230468,3.87304 l -2.228516,3.80078 1.644531,1.52735 c 1.517238,1.4077 16.899547,15.31541 16.972657,15.3457 0.01771,0.007 1.068641,-0.42714 2.335937,-0.96484 1.267317,-0.5377 2.376377,-1.04464 2.464847,-1.12696 0.0884,-0.0823 -0.40129,-0.90805 -1.08789,-1.83593 -0.68666,-0.92788 -3.459766,-4.74607 -6.162113,-8.48438 -2.702325,-3.7383 -5.817876,-8.0399 -6.923828,-9.55859 -1.105974,-1.51869 -2.336807,-3.222342 -2.734375,-3.785158 z"
         id="path4731"
         transform="matrix(0.9375,0,0,0.9375,46.008093,252.97808)" />
      <path
         style="opacity:1;fill:#ffff21;fill-opacity:1;stroke:none;stroke-width:3;stroke-linecap:round;stroke-linejoin:bevel;stroke-miterlimit:4;stroke-dasharray:none;stroke-dashoffset:0;stroke-opacity:1"
         d="m 150.08008,60.675781 c -0.0799,0.218784 -0.45009,1.831643 -0.82227,3.583985 -0.3721,1.75233 -1.19397,5.624561 -1.82617,8.603515 -0.6322,2.978966 -1.63998,7.70996 -2.23828,10.513672 -0.59837,2.803744 -1.40806,6.626942 -1.80078,8.496094 -0.3928,1.869152 -1.34627,6.36095 -2.11914,9.982423 -0.77295,3.62149 -1.72855,8.11326 -2.12305,9.98242 -0.39444,1.86915 -0.85465,4.04077 -1.02148,4.82422 l -0.30274,1.42383 1.19336,0.23047 c 0.65642,0.12679 1.52858,0.31224 1.9375,0.41211 0.40885,0.0998 0.82106,0.19104 0.91602,0.20312 0.0949,0.0121 0.45981,-0.62356 0.81054,-1.41211 0.35076,-0.78854 0.86044,-1.91002 1.13282,-2.49414 0.27242,-0.5841 2.54872,-5.69937 5.05859,-11.36523 2.5098,-5.66587 6.10329,-13.758693 7.98633,-17.984379 1.88304,-4.225685 3.42383,-7.740232 3.42383,-7.810547 0,-0.0704 -0.73342,-1.392401 -1.62891,-2.9375 -2.08195,-3.592266 -5.96479,-10.331459 -7.35547,-12.765625 -0.84723,-1.483082 -1.10642,-1.799362 -1.2207,-1.486328 z"
         id="path4723"
         transform="matrix(0.9375,0,0,0.9375,46.008093,252.97808)" />
      <path
         style="opacity:1;fill:#ffff21;fill-opacity:1;stroke:none;stroke-width:3;stroke-linecap:round;stroke-linejoin:bevel;stroke-miterlimit:4;stroke-dasharray:none;stroke-dashoffset:0;stroke-opacity:1"
         d="m 105.70898,60.46875 c -0.0865,0.09888 -1.33753,2.234424 -2.77929,4.746094 -1.44183,2.51168 -3.654611,6.359047 -4.917971,8.548828 -1.263286,2.189781 -2.296875,4.036945 -2.296875,4.103516 0,0.12305 17.734516,40.056412 18.070316,40.689452 0.0963,0.1816 0.18996,0.26905 0.625,0.23633 0.43503,-0.0327 1.21077,-0.18535 2.67578,-0.48438 l 1.08789,-0.22265 -0.30469,-1.42383 c -0.16702,-0.78345 -0.57494,-2.71587 -0.9082,-4.29297 -0.33333,-1.57711 -1.14507,-5.40031 -1.80274,-8.49609 -0.65765,-3.09578 -2.00541,-9.452118 -2.99609,-14.125003 -0.99075,-4.672875 -1.93983,-9.117615 -2.10742,-9.876953 C 109.88701,79.111755 109.07574,75.288536 108.25,71.375 106.10887,61.227757 105.88474,60.267854 105.70898,60.46875 Z"
         id="path4719"
         transform="matrix(0.9375,0,0,0.9375,46.008093,252.97808)" />
    </g>
    <g
       transform="matrix(1.026489,0,0,1.026489,-4.3973568,-9.6816399)"
       style="fill:#ff800e;fill-opacity:1"
       id="g4865">
      <path
         style="opacity:1;fill:#ff800e;fill-opacity:1;stroke:none;stroke-width:3;stroke-linecap:round;stroke-linejoin:bevel;stroke-miterlimit:4;stroke-dasharray:none;stroke-dashoffset:0;stroke-opacity:1"
         d="m 124.12305,192.81836 c -1.08062,-0.0568 -2.02574,-0.0442 -2.10157,0.0273 -0.0758,0.0717 -0.6711,2.66398 -1.32226,5.75977 -1.97133,9.37285 -4.32517,20.41633 -4.65234,21.82422 l -0.3086,1.32812 h 5.17383 5.17578 v -14.41797 -14.41796 z"
         id="path4813"
         transform="matrix(0.9375,0,0,0.9375,46.008093,252.97808)" />
      <path
         style="opacity:1;fill:#ff800e;fill-opacity:1;stroke:none;stroke-width:3;stroke-linecap:round;stroke-linejoin:bevel;stroke-miterlimit:4;stroke-dasharray:none;stroke-dashoffset:0;stroke-opacity:1"
         d="m 133.67773,192.78125 c -0.2022,0.01 -1.13182,0.0353 -2.0664,0.0547 l -1.69922,0.0352 v 14.4375 14.43946 l 4.19531,0.0586 c 5.93914,0.0815 5.8484,0.0847 5.94336,-0.19922 0.0768,-0.22995 -0.40075,-2.58143 -3.03906,-14.93164 -0.4118,-1.92757 -1.24782,-5.8449 -1.85742,-8.70703 -0.93693,-4.39879 -1.1658,-5.20245 -1.47657,-5.1875 z"
         id="path4809"
         transform="matrix(0.9375,0,0,0.9375,46.008093,252.97808)" />
      <path
         style="opacity:1;fill:#ff800e;fill-opacity:1;stroke:none;stroke-width:3;stroke-linecap:round;stroke-linejoin:bevel;stroke-miterlimit:4;stroke-dasharray:none;stroke-dashoffset:0;stroke-opacity:1"
         d="m 150.29688,189.29883 c -0.39598,-0.14536 -4.48824,1.26922 -4.38477,1.51562 0.0578,0.13809 0.8374,1.87537 1.73047,3.86133 0.893,1.98597 1.75117,3.89757 1.9082,4.24805 0.50631,1.12969 7.34327,16.46689 8.75586,19.64258 0.75245,1.69141 1.44832,3.12463 1.54688,3.18554 0.22377,0.13825 13.81127,0.0773 13.95117,-0.0625 0.0561,-0.0561 -1.06887,-1.71308 -2.5,-3.68164 -1.43113,-1.96854 -3.89775,-5.36004 -5.48242,-7.53711 -1.58474,-2.1771 -4.19158,-5.76109 -5.79297,-7.96484 -1.60135,-2.20371 -4.40668,-6.06256 -6.23242,-8.57422 -1.82576,-2.51168 -3.40055,-4.59632 -3.5,-4.63281 z"
         id="path4797"
         transform="matrix(0.9375,0,0,0.9375,46.008093,252.97808)" />
      <path
         style="opacity:1;fill:#ff800e;fill-opacity:1;stroke:none;stroke-width:3;stroke-linecap:round;stroke-linejoin:bevel;stroke-miterlimit:4;stroke-dasharray:none;stroke-dashoffset:0;stroke-opacity:1"
         d="m 105.82031,189.25977 c -0.22448,0 -0.97783,0.98527 -4.47656,5.85546 -1.406027,1.95719 -5.837351,8.04368 -10.271484,14.10938 -1.579894,2.16119 -3.13855,4.31201 -3.462891,4.7793 -0.324277,0.46728 -1.692216,2.36216 -3.041016,4.21093 -1.34881,1.84881 -2.411108,3.42998 -2.359375,3.51368 0.05205,0.0836 0.460064,0.13699 0.90625,0.11718 0.44623,-0.0198 3.592925,-0.0482 6.994141,-0.0625 l 6.185547,-0.0254 0.955078,-2.17773 c 0.525557,-1.19744 3.51313,-7.91254 6.63867,-14.92188 3.12553,-7.00932 5.81427,-13.04857 5.97461,-13.42187 l 0.29102,-0.67969 -2.04492,-0.64844 c -1.12479,-0.35684 -2.15507,-0.64843 -2.28907,-0.64843 z"
         id="path4795"
         transform="matrix(0.9375,0,0,0.9375,46.008093,252.97808)" />
      <path
         style="opacity:1;fill:#ff800e;fill-opacity:1;stroke:none;stroke-width:3;stroke-linecap:round;stroke-linejoin:bevel;stroke-miterlimit:4;stroke-dasharray:none;stroke-dashoffset:0;stroke-opacity:1"
         d="m 168.39453,180.76367 c -0.29535,0 -5.57008,3.04449 -5.51562,3.1836 0.0342,0.0871 1.12155,1.10363 2.41601,2.25781 1.29442,1.15417 10.46534,9.41076 20.38086,18.34765 9.91547,8.93689 18.32542,16.48723 18.68945,16.7793 l 0.66211,0.53125 17.04883,-0.0371 c 9.3771,-0.0204 17.08656,-0.0729 17.13086,-0.11719 0.0443,-0.0443 -0.84881,-0.61704 -1.98437,-1.27148 -1.13555,-0.65445 -2.92511,-1.68761 -3.97657,-2.29688 -1.05139,-0.60923 -4.10995,-2.37384 -6.79687,-3.92187 -2.68693,-1.54805 -7.08455,-4.08556 -9.77149,-5.63867 -4.58572,-2.65069 -9.28904,-5.36831 -19.64648,-11.34961 -2.39488,-1.38299 -4.64174,-2.67668 -4.99219,-2.875 -0.35045,-0.19834 -2.02285,-1.17185 -3.71679,-2.16211 -1.69395,-0.99025 -3.84473,-2.23174 -4.7793,-2.75977 -0.93458,-0.52791 -3.85,-2.20297 -6.47852,-3.72265 -2.62846,-1.51967 -5.62897,-3.25477 -6.66797,-3.85547 -1.03893,-0.60069 -1.93905,-1.0918 -2.00195,-1.0918 z"
         id="path4785"
         transform="matrix(0.9375,0,0,0.9375,46.008093,252.97808)" />
      <path
         style="opacity:1;fill:#ff800e;fill-opacity:1;stroke:none;stroke-width:3;stroke-linecap:round;stroke-linejoin:bevel;stroke-miterlimit:4;stroke-dasharray:none;stroke-dashoffset:0;stroke-opacity:1"
         d="m 87.556641,180.76367 c -0.05077,0 -0.935363,0.49041 -1.966797,1.08985 -2.115958,1.22979 -8.822303,5.10939 -12.072266,6.98437 -0.350517,0.20219 -2.834626,1.636 -5.521484,3.1875 -7.980758,4.60832 -12.891692,7.43719 -17.841797,10.27539 -2.570109,1.47357 -4.816907,2.76749 -4.992188,2.87695 -0.558149,0.34867 -5.320366,3.10678 -16.992187,9.83985 -6.24996,3.60543 -11.429924,6.62139 -11.511719,6.70117 -0.08186,0.0798 7.652069,0.12378 17.185547,0.0977 8.293367,-0.0227 12.631181,-0.0398 14.949219,-0.0977 2.318037,-0.0579 2.615372,-0.15786 2.828125,-0.34766 v 0.002 c 1.113409,-0.99336 14.018827,-12.59612 15.630859,-14.05274 0.992981,-0.89726 4.816179,-4.33541 8.496094,-7.64062 3.679915,-3.30523 7.552123,-6.79439 8.603515,-7.75391 1.051403,-0.95951 3.439442,-3.10895 5.308594,-4.77734 1.869163,-1.66841 3.427508,-3.10622 3.460938,-3.19336 0.05077,-0.1325 -5.282757,-3.19141 -5.564453,-3.19141 z"
         id="path4781"
         transform="matrix(0.9375,0,0,0.9375,46.008093,252.97808)" />
      <path
         style="opacity:1;fill:#ff800e;fill-opacity:1;stroke:none;stroke-width:3;stroke-linecap:round;stroke-linejoin:bevel;stroke-miterlimit:4;stroke-dasharray:none;stroke-dashoffset:0;stroke-opacity:1"
         d="m 190.62891,163.82227 c -0.69915,0.10586 -1.00005,0.44519 -1.67579,1.13671 -0.63851,0.65343 -2.33258,2.19495 -3.76367,3.42579 -1.431,1.23082 -2.60156,2.31436 -2.60156,2.4082 0,0.0939 0.21566,0.23281 0.47852,0.30859 0.51067,0.14727 5.72698,1.83332 12.47851,4.03125 2.27801,0.74161 7.72656,2.50885 12.10742,3.92774 4.3808,1.4189 9.20589,2.98984 10.72461,3.49218 1.51866,0.50236 2.79478,0.88646 2.83399,0.85352 0.039,-0.0328 -0.92315,-1.76458 -2.13867,-3.84766 -1.21551,-2.08308 -3.48551,-6.01019 -5.04297,-8.72851 -2.0592,-3.59399 -2.95324,-4.9681 -3.27735,-5.03516 -0.24515,-0.0508 -3.31366,-0.38586 -6.81836,-0.74414 -3.50461,-0.35827 -7.66116,-0.79038 -9.23828,-0.96094 -2.26983,-0.24549 -3.36726,-0.37344 -4.0664,-0.26757 z"
         id="path4771"
         transform="matrix(0.9375,0,0,0.9375,46.008093,252.97808)" />
      <path
         style="opacity:1;fill:#ff800e;fill-opacity:1;stroke:none;stroke-width:3;stroke-linecap:round;stroke-linejoin:bevel;stroke-miterlimit:4;stroke-dasharray:none;stroke-dashoffset:0;stroke-opacity:1"
         d="m 65.660156,163.63672 -3.398437,0.35937 c -1.869174,0.19713 -6.362929,0.66042 -9.984375,1.03125 -3.621503,0.37085 -6.789196,0.717 -7.041016,0.76954 -0.294637,0.0615 -0.722388,0.57086 -1.197266,1.42578 -0.698528,1.2574 -1.406435,2.48724 -5.355468,9.29296 -2.413254,4.15893 -3.929688,6.82122 -3.929688,6.9043 0,0.0399 1.266565,-0.34368 2.814453,-0.85351 1.547888,-0.50984 6.398497,-2.08901 10.779297,-3.50782 13.3458,-4.32225 15.646922,-5.06816 20.554688,-6.67773 l 4.728515,-1.55078 -2.179687,-1.87696 c -1.198976,-1.03206 -2.993336,-2.64977 -3.986328,-3.5957 z"
         id="path4767"
         transform="matrix(0.9375,0,0,0.9375,46.008093,252.97808)" />
      <path
         style="opacity:1;fill:#ff800e;fill-opacity:1;stroke:none;stroke-width:3;stroke-linecap:round;stroke-linejoin:bevel;stroke-miterlimit:4;stroke-dasharray:none;stroke-dashoffset:0;stroke-opacity:1"
         d="m 62.349609,135.82422 c -0.116522,-0.0682 -1.142126,1.63571 -4.394531,7.29883 -0.757401,1.3188 -1.318375,2.45702 -1.246094,2.52929 0.07226,0.0722 2.019869,0.34397 4.328125,0.60352 2.30831,0.25954 4.297608,0.48394 4.419922,0.49805 0.122304,0.0141 0.60073,-0.36645 1.0625,-0.84571 0.805419,-0.83585 4.976912,-4.58119 6.416016,-5.75976 0.380096,-0.31129 0.619303,-0.60801 0.53125,-0.66016 -0.088,-0.0522 -2.597143,-0.88034 -5.576172,-1.8418 -2.978891,-0.96144 -5.47292,-1.78244 -5.541016,-1.82226 z"
         id="path4759"
         transform="matrix(0.9375,0,0,0.9375,46.008093,252.97808)" />
      <path
         style="opacity:1;fill:#ff800e;fill-opacity:1;stroke:none;stroke-width:3;stroke-linecap:round;stroke-linejoin:bevel;stroke-miterlimit:4;stroke-dasharray:none;stroke-dashoffset:0;stroke-opacity:1"
         d="m 193.82227,135.78906 -5.45899,1.77344 c -3.00164,0.97579 -5.5296,1.77714 -5.61719,1.7793 -0.22376,0.006 -0.20263,0.14748 0.19532,0.57031 0.39794,0.42283 1.17389,1.12567 2.46093,2.25 1.54789,1.3522 3.27852,2.93289 3.84571,3.51367 0.46519,0.47636 0.74056,0.73855 0.98828,0.8711 0.24772,0.13254 0.46711,0.13631 0.8164,0.0957 0.42586,-0.0494 2.42633,-0.26443 4.44532,-0.47852 2.01892,-0.21411 3.72308,-0.44185 3.78711,-0.50586 0.11062,-0.11062 -0.34138,-1.00087 -1.58789,-3.12695 -0.62684,-1.06914 -0.66784,-1.1405 -2.53711,-4.4043 z"
         id="path4757"
         transform="matrix(0.9375,0,0,0.9375,46.008093,252.97808)" />
      <path
         style="opacity:1;fill:#ff800e;fill-opacity:1;stroke:none;stroke-width:3;stroke-linecap:round;stroke-linejoin:bevel;stroke-miterlimit:4;stroke-dasharray:none;stroke-dashoffset:0;stroke-opacity:1"
         d="m 76.25,111.58398 c -0.133056,0.13946 -1.308652,2.10969 -2.613281,4.37696 -1.91984,3.33645 -2.320301,4.17047 -2.095703,4.37695 0.152608,0.14032 2.045836,1.26656 4.207031,2.50195 2.161184,1.2354 5.651111,3.24795 7.753906,4.47266 2.102784,1.2247 3.92327,2.2345 4.046875,2.24414 0.123541,0.01 1.319546,-0.59978 2.65625,-1.35352 3.038368,-1.71327 3.089919,-1.74508 2.960938,-1.85742 -0.513323,-0.44698 -11.160932,-10.02635 -11.894532,-10.70117 -1.95937,-1.80235 -3.156546,-2.87951 -3.892578,-3.47461 -0.736032,-0.59509 -1.011413,-0.70911 -1.128906,-0.58594 z"
         id="path4739"
         transform="matrix(0.9375,0,0,0.9375,46.008093,252.97808)" />
      <path
         style="opacity:1;fill:#ff800e;fill-opacity:1;stroke:none;stroke-width:3;stroke-linecap:round;stroke-linejoin:bevel;stroke-miterlimit:4;stroke-dasharray:none;stroke-dashoffset:0;stroke-opacity:1"
         d="m 179.69531,111.33594 c -0.0679,-0.0871 -0.47185,0.26571 -6.0332,5.28125 -4.36816,3.93947 -7.28598,6.55552 -9.37695,8.4082 -0.77937,0.69055 -1.42443,1.31772 -1.4336,1.39258 -0.009,0.0749 1.05879,0.72906 2.37305,1.45312 1.31426,0.72408 2.47887,1.40333 2.58984,1.50977 0.11108,0.10645 0.31928,0.19336 0.46289,0.19336 0.14364,0 2.06113,-1.03749 4.25977,-2.30469 2.1987,-1.2672 5.71752,-3.28825 7.82031,-4.49219 2.1028,-1.20394 3.95027,-2.30576 4.10547,-2.44726 0.23051,-0.21015 -0.17577,-1.04958 -2.21289,-4.58594 -1.37184,-2.38151 -2.52107,-4.36509 -2.55469,-4.4082 z"
         id="path4737"
         transform="matrix(0.9375,0,0,0.9375,46.008093,252.97808)" />
      <path
         style="opacity:1;fill:#ff800e;fill-opacity:1;stroke:none;stroke-width:3;stroke-linecap:round;stroke-linejoin:bevel;stroke-miterlimit:4;stroke-dasharray:none;stroke-dashoffset:0;stroke-opacity:1"
         d="m 93.513672,82.478516 c -0.117019,-0.22336 -0.209094,-0.292651 -0.466797,0.0332 -0.257703,0.325853 -0.681675,1.047124 -1.462891,2.40625 -0.922762,1.605376 -2.186247,3.760102 -2.808593,4.789062 -0.622336,1.02896 -1.132813,1.905944 -1.132813,1.949219 0,0.04331 -0.343672,0.65624 -0.763672,1.361328 l -0.763672,1.28125 2.728516,3.736328 c 1.500629,2.054354 2.871173,3.946034 3.044922,4.203124 0.173675,0.25709 1.128583,1.57725 2.123047,2.93555 0.994517,1.35828 2.622231,3.59412 3.615234,4.96679 2.425817,3.35341 4.036397,5.56522 5.720707,7.85743 0.77258,1.05141 1.57099,2.17483 1.77539,2.49609 0.2261,0.35539 0.37872,0.53199 0.77539,0.52734 0.39666,-0.005 1.03813,-0.19037 2.24218,-0.5625 1.33063,-0.41125 1.89136,-0.68154 1.84571,-0.88867 -0.0361,-0.16367 -2.27683,-5.26705 -4.97852,-11.34179 -2.70168,-6.07476 -5.502506,-12.384016 -6.224607,-14.019536 -2.171168,-4.917418 -5.001638,-11.219183 -5.269531,-11.730468 z"
         id="path4729"
         transform="matrix(0.9375,0,0,0.9375,46.008093,252.97808)" />
      <path
         style="opacity:1;fill:#ff800e;fill-opacity:1;stroke:none;stroke-width:3;stroke-linecap:round;stroke-linejoin:bevel;stroke-miterlimit:4;stroke-dasharray:none;stroke-dashoffset:0;stroke-opacity:1"
         d="m 162.61133,82.152344 c -0.0779,0.08864 -0.50517,1.022826 -0.94922,2.074218 -0.44412,1.051393 -0.88485,2.055237 -0.98047,2.230469 -0.16147,0.295862 -4.54913,10.134885 -6.3457,14.230469 -1.56744,3.57324 -6.84695,15.42819 -7.47266,16.7793 -0.53881,1.16342 -0.80572,1.72981 -0.85742,2.03711 -0.0517,0.30729 0.11164,0.35521 0.43359,0.48047 0.97521,0.37941 3.31416,1.0695 3.66993,1.08203 0.1918,0.006 0.97569,-0.87094 1.80664,-2.02539 0.80677,-1.12086 2.03933,-2.83581 2.74023,-3.81055 0.70095,-0.97475 3.18108,-4.38362 5.51172,-7.57422 2.33069,-3.19059 5.46557,-7.49481 6.9668,-9.564453 l 2.73046,-3.761719 -3.55664,-6.169922 c -1.95585,-3.392864 -3.61936,-6.096484 -3.69726,-6.007812 z"
         id="path4727"
         transform="matrix(0.9375,0,0,0.9375,46.008093,252.97808)" />
      <path
         style="opacity:1;fill:#ff800e;fill-opacity:1;stroke:none;stroke-width:3;stroke-linecap:round;stroke-linejoin:bevel;stroke-miterlimit:4;stroke-dasharray:none;stroke-dashoffset:0;stroke-opacity:1"
         d="m 130.01758,25.316406 -0.10547,13.736328 c -0.0585,7.555403 -0.0825,28.285564 -0.0527,46.066407 l 0.0547,32.328129 1.43164,0.0742 c 0.78783,0.0409 1.71981,0.0943 2.07032,0.11719 l 0.63671,0.041 0.67774,-3.24024 c 0.72261,-3.45493 3.51783,-16.63175 4.42578,-20.867184 0.30054,-1.401867 0.91962,-4.317311 1.37695,-6.478516 0.45739,-2.161205 1.07986,-5.076649 1.38282,-6.478516 0.30301,-1.401845 0.87259,-4.078113 1.26562,-5.947265 1.29725,-6.169888 3.09472,-14.617356 3.62109,-17.019531 l 0.51758,-2.365235 -3.35547,-5.8125 c -1.84582,-3.197504 -5.73987,-9.940652 -8.65234,-14.984375 z"
         id="path4717"
         transform="matrix(0.9375,0,0,0.9375,46.008093,252.97808)" />
      <path
         style="opacity:1;fill:#ff800e;fill-opacity:1;stroke:none;stroke-width:3;stroke-linecap:round;stroke-linejoin:bevel;stroke-miterlimit:4;stroke-dasharray:none;stroke-dashoffset:0;stroke-opacity:1"
         d="m 126.08008,25.177734 -0.86914,1.486328 c -0.47801,0.81775 -2.13827,3.686146 -3.68946,6.373047 -1.55125,2.686912 -3.89882,6.749307 -5.21679,9.027344 -1.31791,2.278027 -3.57214,6.186347 -5.00977,8.685547 l -2.61328,4.542969 0.51953,2.359375 c 0.28567,1.297514 1.38915,6.468838 2.45313,11.492187 1.87766,8.864758 4.14732,19.548499 5.21289,24.533203 1.03722,4.852214 3.73965,17.595046 4.40039,20.753906 l 0.67383,3.23047 2.02148,-0.12695 c 1.11092,-0.0697 2.04184,-0.14604 2.07031,-0.16797 0.0448,-0.0348 0.0688,-34.508376 0.0527,-78.277346 z"
         id="path4715"
         transform="matrix(0.9375,0,0,0.9375,46.008093,252.97808)" />
    </g>
    <circle
       r="6.4256015"
       cy="391.69403"
       cx="158.25861"
       id="path4883"
       style="opacity:1;fill:#ddf8ff;fill-opacity:1;stroke:none;stroke-width:2.34607983;stroke-linecap:round;stroke-linejoin:bevel;stroke-miterlimit:4;stroke-dasharray:none;stroke-dashoffset:0;stroke-opacity:1" />
    <path
       id="path4526"
       d="m 159.78312,429.20141 c -13.21905,-1.35958 -27.37556,-7.64082 -40.67622,-18.04803 -1.29283,-1.01162 -2.39663,-1.891 -2.45285,-1.95419 -0.0563,-0.0632 -0.93529,-0.81627 -1.95351,-1.67347 -2.25579,-1.89904 -8.26665,-7.88235 -8.26665,-8.22875 0,-0.37594 5.68026,-5.99893 8.55446,-8.4682 6.58559,-5.65782 13.96111,-10.6609 20.69437,-14.03777 15.2702,-7.6583 29.85914,-9.53335 44.57057,-5.72844 12.81088,3.31334 25.7701,10.69776 37.63506,21.44516 3.02809,2.74284 6.71057,6.51429 6.64259,6.80301 -0.19829,0.84213 -6.69898,7.07172 -11.0153,10.55589 -3.50391,2.82837 -9.08022,6.89483 -9.45481,6.89483 -0.0386,0 -0.74956,0.44733 -1.58023,0.99406 -2.0458,1.34662 -3.93862,2.39028 -8.04711,4.43704 -7.65195,3.81204 -15.07827,6.06288 -22.89714,6.9399 -2.87687,0.32268 -8.94041,0.35826 -11.75323,0.069 z m 10.93557,-3.9507 c 5.22583,-1.10025 9.68692,-3.53027 13.49737,-7.35218 2.89342,-2.90211 5.14904,-6.51603 6.40317,-10.25892 2.11707,-6.31839 1.56289,-14.22819 -1.40979,-20.12226 -1.72437,-3.41891 -4.97474,-7.26813 -8.05843,-9.54305 -3.06981,-2.26467 -7.24826,-4.0342 -11.24991,-4.76418 -2.45398,-0.44768 -6.90392,-0.40967 -9.33175,0.0797 -3.72482,0.75076 -7.92043,2.60297 -10.83498,4.78317 -3.02657,2.26408 -6.23869,6.08914 -7.93095,9.44438 -2.96786,5.8845 -3.51522,13.52661 -1.43661,20.05697 1.951,6.1293 6.97524,12.04244 12.87544,15.15329 4.12406,2.17444 8.04018,3.06097 12.97962,2.9384 1.61149,-0.04 3.57597,-0.22141 4.49682,-0.4153 z m -26.9313,-5.19813 c -4.00425,-4.17187 -6.55553,-9.03017 -7.84654,-14.94212 -0.30263,-1.38583 -0.37793,-2.5854 -0.37213,-5.92769 0.006,-3.79679 0.0575,-4.40141 0.54257,-6.43871 0.73962,-3.10668 1.99318,-6.22471 3.53374,-8.78984 1.51567,-2.52363 2.24569,-3.46468 4.49189,-5.79056 l 1.64462,-1.70298 -1.32863,0.50298 c -10.21307,3.86643 -22.04215,11.63506 -31.32748,20.57401 l -1.79455,1.72755 1.28187,1.30776 c 1.24702,1.27223 4.33218,4.04581 6.25727,5.62544 0.52377,0.42974 1.13625,0.93644 1.36109,1.12597 4.11081,3.46547 11.75288,8.43208 17.07662,11.09815 2.71853,1.36143 7.86434,3.63915 8.24335,3.64883 0.098,0.002 -0.69558,-0.90596 -1.76369,-2.01879 z m 44.47532,0.88166 c 10.30531,-4.37065 20.58651,-11.23224 29.1837,-19.4769 l 2.26524,-2.17238 -1.80774,-1.7489 c -9.0652,-8.7703 -21.26168,-16.78196 -31.29981,-20.56031 l -1.3301,-0.50065 1.98352,2.08611 c 3.93162,4.13489 6.47193,8.90533 7.71589,14.48946 0.41413,1.85907 0.4779,2.69319 0.47659,6.23429 0,3.1986 -0.0828,4.45959 -0.37549,5.79559 -1.29856,5.92867 -3.86383,10.82002 -7.85582,14.97907 -1.06441,1.10896 -1.87064,2.01631 -1.79159,2.01631 0.079,0 1.35502,-0.51377 2.83561,-1.14169 z"
       style="fill:#0a0a0a;fill-opacity:1;stroke-width:0.20440322" />
    <path
       transform="matrix(0.9375,0,0,0.9375,46.008093,252.97808)"
       id="rect5951"
       d="M 0 0 L 0 39.205078 L 71.162109 102.29492 L 77.990234 90.513672 L 12.726562 0 L 0 0 z M 60.626953 0 L 90.941406 68.109375 L 102.9082 47.460938 L 92.806641 0 L 60.626953 0 z M 163.19336 0 L 153.0918 47.460938 L 165.05859 68.109375 L 195.37305 0 L 163.19336 0 z M 243.27344 0 L 178.00977 90.513672 L 184.83789 102.29492 L 256 39.205078 L 256 0 L 243.27344 0 z M 0 85.599609 L 0 112.44336 L 54.929688 130.37305 L 61.119141 119.69336 L 0 85.599609 z M 256 85.599609 L 194.88086 119.69336 L 201.07031 130.37305 L 256 112.44336 L 256 85.599609 z M 0 144.35742 L 0 168.61914 L 35.451172 163.98828 L 43.986328 149.25781 L 0 144.35742 z M 256 144.35742 L 212.01367 149.25781 L 220.54883 163.98828 L 256 168.61914 L 256 144.35742 z M 18.482422 193.75977 L 0 199.77734 L 0 225.6543 L 18.482422 193.75977 z M 237.51758 193.75977 L 256 225.6543 L 256 199.77734 L 237.51758 193.75977 z M 46.494141 232.16016 L 20.050781 256 L 53.029297 256 L 70.416016 232.16016 L 46.494141 232.16016 z M 96.253906 232.16016 L 85.621094 256 L 105.19727 256 L 110.21875 232.16016 L 96.253906 232.16016 z M 145.78125 232.16016 L 150.80273 256 L 170.37695 256 L 159.74609 232.16016 L 145.78125 232.16016 z M 185.58398 232.16016 L 202.9707 256 L 235.94922 256 L 209.50586 232.16016 L 185.58398 232.16016 z "
       style="opacity:1;fill:url(#radialGradient6460);fill-opacity:1;stroke:none;stroke-width:0.75590551;stroke-linecap:round;stroke-linejoin:bevel;stroke-miterlimit:4;stroke-dasharray:0.75590551, 36.28346456999999958;stroke-dashoffset:0;stroke-opacity:1" />
    <path
       transform="matrix(0.9375,0,0,0.9375,46.008093,252.97808)"
       id="path6028"
       d="M 16.876953 0 L 80.066406 86.816406 L 88.509766 72.242188 L 56.294922 0 L 16.876953 0 z M 96.785156 0 L 105.79102 42.335938 L 125.81445 7.7851562 L 125.75391 0 L 96.785156 0 z M 130.24609 0 L 130.18555 7.7851562 L 150.20898 42.335938 L 159.21484 0 L 130.24609 0 z M 199.70508 0 L 167.49023 72.242188 L 175.93359 86.816406 L 239.12305 0 L 199.70508 0 z M 0 45.509766 L 0 80.195312 L 62.949219 116.35547 L 69.099609 105.74023 L 0 45.509766 z M 256 45.509766 L 186.90039 105.74023 L 193.05078 116.35547 L 256 80.195312 L 256 45.509766 z M 0 117.10938 L 0 140.53711 L 46.162109 145.50586 L 52.90625 133.86719 L 0 117.10938 z M 256 117.10938 L 203.09375 133.86719 L 209.83789 145.50586 L 256 140.53711 L 256 117.10938 z M 33.257812 167.99023 L 0 171.70703 L 0 195.625 L 21.238281 188.73438 L 33.257812 167.99023 z M 222.74219 167.99023 L 234.76172 188.73438 L 256 195.625 L 256 171.70703 L 222.74219 167.99023 z M 0.19335938 232.16016 L 0 232.27148 L 0 256 L 14.134766 256 L 40.615234 232.16016 L 0.19335938 232.16016 z M 75.140625 232.16016 L 57.800781 256 L 81.240234 256 L 91.923828 232.16016 L 75.140625 232.16016 z M 113.80273 232.16016 L 109.17773 256 L 126.03711 256 L 126.03711 232.16016 L 113.80273 232.16016 z M 129.96289 232.16016 L 129.96289 256 L 146.82227 256 L 142.19727 232.16016 L 129.96289 232.16016 z M 164.07617 232.16016 L 174.75977 256 L 198.19922 256 L 180.85938 232.16016 L 164.07617 232.16016 z M 215.38477 232.16016 L 241.86523 256 L 256 256 L 256 232.27148 L 255.80664 232.16016 L 215.38477 232.16016 z "
       style="opacity:1;fill:url(#radialGradient6452);fill-opacity:1;stroke:none;stroke-width:0.75590551;stroke-linecap:round;stroke-linejoin:bevel;stroke-miterlimit:4;stroke-dasharray:0.75590551, 36.28346456999999958;stroke-dashoffset:0;stroke-opacity:1" />
  </g>
</svg>
