<?xml version="1.0" encoding="UTF-8" standalone="no"?>
<svg
   xmlns:dc="http://purl.org/dc/elements/1.1/"
   xmlns:cc="http://creativecommons.org/ns#"
   xmlns:rdf="http://www.w3.org/1999/02/22-rdf-syntax-ns#"
   xmlns:svg="http://www.w3.org/2000/svg"
   xmlns="http://www.w3.org/2000/svg"
   version="1.1"
   x="0px"
   y="0px"
   viewBox="0 0 16 16"
   enable-background="new 0 0 1000 1000"
   xml:space="preserve"
   id="svg8"
   width="16"
   height="16"><metadata
   id="metadata14"><rdf:RDF><cc:Work
       rdf:about=""><dc:format>image/svg+xml</dc:format><dc:type
         rdf:resource="http://purl.org/dc/dcmitype/StillImage" /><dc:title></dc:title></cc:Work></rdf:RDF></metadata><defs
   id="defs12" />
<g
   id="g6"
   transform="matrix(0.03231912,0,0,0.03231912,-0.15955932,-16.077267)"><g
     transform="matrix(0.1,0,0,-0.1,0,410)"
     id="g4"><path
       d="m 3369.45,-922.33507 c -40.5,-27.9 -92.15,-131.20003 -120.05,-237.30003 -37.7,-145.2 -41.9,-268.05 -16.75,-423 l 23.7,-142.4 -69.8,-79.55 c -37.7,-43.3 -251.3,-261.05 -473.25,-483 l -404.8,-403.5 -128.45,51.65 c -69.8,29.3 -188.45,68.4 -262.45,89.35 -121.45,32.1 -202.5844,43.9426 -379.7,43.9426 -168.8304,0 -254.05,-10.4426 -367.15,-45.3426 -152.15,-47.45 -283.4,-113.1 -396.45,-198.25 -113.1,-83.75 -143.8,-124.25 -143.8,-185.65 0,-46.05 29.3,-79.6 469.05,-522.1 258.25,-259.65 466.25,-477.45 463.45,-484.4 -1.4,-7 -332.25,-393.65 -732.9,-859.95 -684.05,-792.95 -730.1,-848.8 -730.1,-899.05 0,-86.55 79.6,-145.2 157.75,-117.25 19.55,5.6 413.2,340.6 875.3,741.25 l 841.8,731.5 462.1,-460.7 c 254.05,-252.7 476.05,-467.65 494.2,-477.45 50.25,-25.15 107.5,-4.2 166.15,60.05 121.45,132.6 219.2,314.1 270.8,505.35 25.15,92.15 30.7,152.15 32.1,335.05 1.4,202.4 -2.8,237.3 -39.1,376.9 -22.35,85.15 -62.8,208 -92.15,275 l -51.65,120.05 483.05,483 483,481.65 83.75,-19.55 c 111.7,-26.5 356,-26.5 460.7,0 194.05,51.75 272.2,106.2 272.2,194.1 0,57.25 -5.6,62.8 -758.05,813.9 -665.9,665.90003 -762.25,758.05003 -798.5,758.05003 -23.75,0 -57.25,-9.8 -74,-22.35 z"
       id="path2"
       style="fill:#ffffff;stroke-width:0.5" /></g></g>
</svg>