<?xml version="1.0" encoding="UTF-8" standalone="no"?>
<svg xmlns="http://www.w3.org/2000/svg" version="1.1" viewBox="0 0 240 240" width="256" height="256">
  <defs>
    <linearGradient id="cctvBg" x1="0" y1="0" x2="1" y2="1">
      <stop offset="0" stop-color="#1ab2d6"/>
      <stop offset="1" stop-color="#0c5f74"/>
    </linearGradient>
    <linearGradient id="cctvBody" x1="0" y1="0" x2="0" y2="1">
      <stop offset="0" stop-color="#ffffff"/>
      <stop offset="1" stop-color="#d7e9ef"/>
    </linearGradient>
  </defs>

  <rect x="8" y="8" width="224" height="224" rx="52" fill="url(#cctvBg)"/>

  <!-- streaming signal arcs -->
  <g fill="none" stroke="#ffffff" stroke-width="7" stroke-linecap="round" opacity="0.9">
    <path d="M150 66 a30 30 0 0 1 30 30"/>
    <path d="M150 46 a50 50 0 0 1 50 50"/>
  </g>

  <!-- wall mount -->
  <rect x="176" y="150" width="16" height="42" rx="6" fill="#ffffff"/>
  <rect x="166" y="184" width="38" height="14" rx="6" fill="#ffffff"/>

  <!-- camera, slightly tilted down -->
  <g transform="rotate(-18 118 128)">
    <!-- connector to mount -->
    <rect x="170" y="116" width="30" height="24" rx="7" fill="#ffffff"/>
    <!-- body -->
    <rect x="50" y="104" width="134" height="48" rx="24" fill="url(#cctvBody)" stroke="#0c5f74" stroke-width="2"/>
    <!-- sun shield -->
    <rect x="46" y="95" width="98" height="18" rx="9" fill="#ffffff" stroke="#0c5f74" stroke-width="2"/>
    <!-- lens -->
    <circle cx="74" cy="128" r="21" fill="#0c3b48"/>
    <circle cx="74" cy="128" r="12" fill="#12657a"/>
    <circle cx="67" cy="121" r="4.5" fill="#bfeaf3"/>
  </g>
</svg>
