<?xml version="1.0" encoding="UTF-8" standalone="no"?>
<svg
   xmlns:dc="http://purl.org/dc/elements/1.1/"
   xmlns:cc="http://creativecommons.org/ns#"
   xmlns:rdf="http://www.w3.org/1999/02/22-rdf-syntax-ns#"
   xmlns:svg="http://www.w3.org/2000/svg"
   xmlns="http://www.w3.org/2000/svg"
   id="svg13"
   version="1.1"
   height="32"
   width="96">
  <metadata
     id="metadata19">
    <rdf:RDF>
      <cc:Work
         rdf:about="">
        <dc:format>image/svg+xml</dc:format>
        <dc:type
           rdf:resource="http://purl.org/dc/dcmitype/StillImage" />
        <dc:title></dc:title>
      </cc:Work>
    </rdf:RDF>
  </metadata>
  <defs
     id="defs17" />
  <rect
     rx="4"
     y="0.041594516"
     x="0"
     height="32"
     width="96"
     id="rect848"
     style="opacity:1;fill:#f6c915;fill-opacity:1;stroke:none;stroke-width:22;stroke-linecap:round;stroke-linejoin:round;stroke-miterlimit:4;stroke-dasharray:none;stroke-opacity:1" />
  <g
     transform="matrix(0.29442447,0,0,0.29442447,-16.666627,-57.662522)"
     id="g7"
     style="fill:#ffffff">
    <path
       style="fill:#ffffff"
       d="m 104.28,271.1 c -3.571,0 -6.373,-0.466 -8.41,-1.396 -2.037,-0.93 -3.495,-2.199 -4.375,-3.809 -0.88,-1.609 -1.308,-3.457 -1.282,-5.544 0.025,-2.086 0.313,-4.311 0.868,-6.675 l 9.579,-40.05 11.69,-1.81 -10.484,43.44 c -0.202,0.905 -0.314,1.735 -0.339,2.489 -0.026,0.754 0.113,1.421 0.415,1.999 0.302,0.579 0.817,1.044 1.546,1.395 0.729,0.353 1.747,0.579 3.055,0.679 l -2.263,9.278"
       id="path3" />
    <path
       style="fill:#ffffff"
       d="m 146.52,246.14 c 0,3.671 -0.604,7.03 -1.811,10.07 -1.207,3.043 -2.879,5.669 -5.01,7.881 -2.138,2.213 -4.702,3.935 -7.693,5.167 -2.992,1.231 -6.248,1.848 -9.767,1.848 -1.71,0 -3.42,-0.151 -5.129,-0.453 l -3.394,13.651 h -11.162 l 12.52,-52.19 c 2.01,-0.603 4.311,-1.143 6.901,-1.622 2.589,-0.477 5.393,-0.716 8.41,-0.716 2.815,0 5.242,0.428 7.278,1.282 2.037,0.855 3.708,2.024 5.02,3.507 1.307,1.484 2.274,3.219 2.904,5.205 0.627,1.987 0.942,4.11 0.942,6.373 m -27.378,15.461 c 0.854,0.202 1.91,0.302 3.167,0.302 1.961,0 3.746,-0.364 5.355,-1.094 1.609,-0.728 2.979,-1.747 4.111,-3.055 1.131,-1.307 2.01,-2.877 2.64,-4.714 0.628,-1.835 0.943,-3.858 0.943,-6.071 0,-2.161 -0.479,-3.998 -1.433,-5.506 -0.956,-1.508 -2.615,-2.263 -4.978,-2.263 -1.61,0 -3.118,0.151 -4.525,0.453 l -5.28,21.948"
       id="path5" />
  </g>
  <g
     aria-label="Donate"
     style="font-weight:700;font-size:15.955163px;font-family:'Helvetica Neue', Helvetica, Arial, sans-serif;text-anchor:middle;fill:#ffffff;stroke-width:1.13965452"
     id="text11">
    <path
       d="m 33.240222,21.632172 h 4.547221 c 1.771023,0 2.887885,-0.414835 3.685643,-1.356189 0.909444,-1.084951 1.404054,-2.648557 1.404054,-4.467446 0,-1.802933 -0.49461,-3.366539 -1.404054,-4.467446 -0.797758,-0.941354 -1.898665,-1.340233 -3.685643,-1.340233 h -4.547221 z m 2.393274,-1.994396 v -7.642523 h 2.153947 c 1.802933,0 2.696423,1.260458 2.696423,3.829239 0,2.552826 -0.89349,3.813284 -2.696423,3.813284 z"
       style="font-weight:700;font-size:15.955163px;font-family:'Helvetica Neue', Helvetica, Arial, sans-serif;text-anchor:middle;fill:#ffffff;stroke-width:1.13965452"
       id="path895" />
    <path
       d="m 48.36567,12.872787 c -2.632602,0 -4.244074,1.739113 -4.244074,4.563177 0,2.840019 1.611472,4.563176 4.260029,4.563176 2.632602,0 4.260029,-1.723157 4.260029,-4.499356 0,-2.919794 -1.579562,-4.626997 -4.275984,-4.626997 z m 0.01595,1.802934 c 1.228548,0 2.026306,1.100906 2.026306,2.792153 0,1.611472 -0.829669,2.728333 -2.026306,2.728333 -1.212592,0 -2.026306,-1.100906 -2.026306,-2.760243 0,-1.659337 0.813714,-2.760243 2.026306,-2.760243 z"
       style="font-weight:700;font-size:15.955163px;font-family:'Helvetica Neue', Helvetica, Arial, sans-serif;text-anchor:middle;fill:#ffffff;stroke-width:1.13965452"
       id="path897" />
    <path
       d="m 54.316917,13.016384 v 8.615788 h 2.233723 v -5.169473 c 0,-1.021131 0.702027,-1.691247 1.802933,-1.691247 0.95731,0 1.435965,0.52652 1.435965,1.54765 v 5.31307 h 2.233723 v -5.775769 c 0,-1.91462 -1.037086,-2.983616 -2.887885,-2.983616 -1.164726,0 -1.946529,0.414834 -2.584736,1.388099 v -1.244502 z"
       style="font-weight:700;font-size:15.955163px;font-family:'Helvetica Neue', Helvetica, Arial, sans-serif;text-anchor:middle;fill:#ffffff;stroke-width:1.13965452"
       id="path899" />
    <path
       d="m 71.420821,21.360934 c -0.382924,-0.366969 -0.510566,-0.622251 -0.510566,-1.053041 v -4.786549 c 0,-1.755068 -1.196637,-2.648557 -3.526091,-2.648557 -2.329453,0 -3.542046,0.98922 -3.685642,2.983616 h 2.153947 c 0.111686,-0.89349 0.478655,-1.180682 1.579561,-1.180682 0.861579,0 1.292368,0.287192 1.292368,0.861578 0,0.287193 -0.143596,0.526521 -0.382924,0.670117 -0.303148,0.159552 -0.303148,0.159552 -1.404054,0.335059 l -0.893489,0.159551 c -1.707203,0.287193 -2.536871,1.164727 -2.536871,2.712378 0,1.547651 1.037085,2.584736 2.616647,2.584736 0.957309,0 1.818888,-0.398879 2.616646,-1.228547 0,0.446744 0.04787,0.606296 0.255283,0.861579 h 2.425185 z m -2.696423,-3.191033 c 0,1.292368 -0.638206,2.026306 -1.771023,2.026306 -0.749893,0 -1.212592,-0.398879 -1.212592,-1.037086 0,-0.670116 0.351013,-0.98922 1.276413,-1.180682 l 0.765848,-0.143596 c 0.590341,-0.111686 0.686072,-0.143597 0.941354,-0.271238 z"
       style="font-weight:700;font-size:15.955163px;font-family:'Helvetica Neue', Helvetica, Arial, sans-serif;text-anchor:middle;fill:#ffffff;stroke-width:1.13965452"
       id="path901" />
    <path
       d="m 76.68602,13.19189 h -1.244503 v -2.313498 h -2.233723 v 2.313498 h -1.100906 v 1.483831 h 1.100906 v 5.297114 c 0,1.356189 0.717982,2.026305 2.185857,2.026305 0.510566,0 0.877534,-0.04787 1.292369,-0.175506 v -1.563606 c -0.223373,0.03191 -0.335059,0.04787 -0.510566,0.04787 -0.590341,0 -0.733937,-0.175507 -0.733937,-0.941355 v -4.690817 h 1.244503 z"
       style="font-weight:700;font-size:15.955163px;font-family:'Helvetica Neue', Helvetica, Arial, sans-serif;text-anchor:middle;fill:#ffffff;stroke-width:1.13965452"
       id="path903" />
    <path
       d="m 85.493212,18.026305 c 0.01596,-0.191462 0.01596,-0.271238 0.01596,-0.382924 0,-0.861579 -0.127641,-1.659337 -0.335058,-2.265633 -0.574386,-1.563606 -1.962485,-2.504961 -3.701598,-2.504961 -2.47305,0 -3.988791,1.786978 -3.988791,4.674863 0,2.760243 1.499786,4.45149 3.940926,4.45149 1.930574,0 3.49418,-1.084951 3.98879,-2.792153 h -2.201812 c -0.271238,0.686072 -0.893489,1.084951 -1.707203,1.084951 -0.638206,0 -1.148771,-0.271238 -1.467875,-0.749893 -0.207417,-0.319103 -0.287193,-0.702027 -0.319103,-1.51574 z m -5.743859,-1.48383 c 0.143597,-1.324279 0.702028,-1.962485 1.691248,-1.962485 1.02113,0 1.627426,0.686072 1.739113,1.962485 z"
       style="font-weight:700;font-size:15.955163px;font-family:'Helvetica Neue', Helvetica, Arial, sans-serif;text-anchor:middle;fill:#ffffff;stroke-width:1.13965452"
       id="path905" />
  </g>
</svg>
