<?xml version="1.0" encoding="UTF-8" standalone="no"?>
<svg
   xmlns:dc="http://purl.org/dc/elements/1.1/"
   xmlns:cc="http://creativecommons.org/ns#"
   xmlns:rdf="http://www.w3.org/1999/02/22-rdf-syntax-ns#"
   xmlns:svg="http://www.w3.org/2000/svg"
   xmlns="http://www.w3.org/2000/svg"
   id="svg1869"
   version="1.1"
   viewBox="0 0 6.3499999 6.3500001"
   height="24"
   width="24">
  <defs
     id="defs1863" />
  <metadata
     id="metadata1866">
    <rdf:RDF>
      <cc:Work
         rdf:about="">
        <dc:format>image/svg+xml</dc:format>
        <dc:type
           rdf:resource="http://purl.org/dc/dcmitype/StillImage" />
        <dc:title></dc:title>
      </cc:Work>
    </rdf:RDF>
  </metadata>
  <g
     transform="matrix(0.75,0,0,0.75,0,-216.39999)"
     id="layer1">
    <g
       style="fill:#ffffff"
       id="g8"
       transform="matrix(0.00863944,0,0,0.00863944,-0.08638639,288.44694)">
      <path
         transform="matrix(0.97913685,0,0,0.97913685,10.431573,10.431573)"
         style="fill:#000000;fill-opacity:1"
         d="m 500,-0.44140625 c -19.24416,0 -39.34749,1.22622947 -59.74414,3.67382815 a 10.442228,10.442228 0 0 0 -0.002,0 C 406.59206,7.2810977 379.41644,33.172577 374.08789,66.765625 l -15.00195,93.121095 -76.47071,-55.25 a 10.442228,10.442228 0 0 0 -0.004,-0.004 C 269.32242,95.041685 253.66558,90.158203 238,90.158203 c -16.66151,0 -33.28749,5.468756 -47.04688,16.328127 -0.003,0.003 -0.006,0.005 -0.01,0.008 -0.005,0.004 -0.0105,0.008 -0.0156,0.0117 -31.36056,24.62187 -59.73159,53.10223 -84.42773,84.43164 a 10.442228,10.442228 0 0 0 -0.0195,0.0234 c -20.93379,26.7166 -21.759822,64.21323 -1.83203,91.67187 l 55.23828,76.45313 -93.146486,15.00586 a 10.442228,10.442228 0 0 0 -0.0098,0.002 C 33.185683,379.53032 7.2814363,406.58924 3.2324219,440.25391 l 0.00195,-0.004 c -2.44855833,20.30263 -3.67578125,40.40819 -3.67578125,59.75 0,19.34181 1.22722292,39.44737 3.67578125,59.75 l -0.00195,-0.004 c 4.0490144,33.66467 29.9532611,60.72359 63.4980471,66.16016 a 10.442228,10.442228 0 0 0 0.0098,0.002 l 93.146481,15.00586 -55.25,76.47071 c -19.905577,27.54376 -19.09,65.03734 1.84375,91.7539 a 10.442228,10.442228 0 0 0 0.008,0.0117 c 24.72294,31.46556 53.20852,59.84699 84.45117,84.45313 a 10.442228,10.442228 0 0 0 0.0312,0.0234 c 13.77515,10.76546 30.4415,16.21485 47.02931,16.21485 15.61402,0 31.32204,-4.76858 44.6582,-14.50977 l 76.42774,-55.21875 15.00195,93.1211 c 5.32855,33.59304 32.50417,59.48452 66.16602,63.5332 l -0.004,-0.002 c 20.2985,2.44807 40.31051,3.6758 59.75,3.6758 19.63491,0 39.17148,-1.229 59.73242,-3.67189 a 10.442228,10.442228 0 0 0 0.0137,-0.002 c 33.68808,-4.05183 60.71977,-30.03955 66.16016,-63.49219 a 10.442228,10.442228 0 0 0 0.002,-0.0156 l 15.00586,-93.14649 76.47072,55.25 a 10.442228,10.442228 0 0 0 0.004,0.004 c 13.28891,9.59112 28.94575,14.47461 44.61133,14.47461 16.67192,0 33.27651,-5.46687 47.0293,-16.21485 a 10.442228,10.442228 0 0 0 0.0176,-0.0137 c 31.36188,-24.61959 59.8472,-53.10491 84.46679,-84.4668 a 10.442228,10.442228 0 0 0 0.006,-0.008 c 20.92941,-26.71101 21.7587,-64.1972 1.84375,-91.65429 l -55.25,-76.47071 93.14649,-15.00586 a 10.442228,10.442228 0 0 0 0.01,-0.002 c 33.54096,-5.43595 59.56641,-32.49943 63.50195,-66.29883 2.44084,-20.55146 3.66994,-40.07844 3.66994,-59.60742 0,-19.53719 -1.229,-39.07186 -3.67189,-59.63281 a 10.442228,10.442228 0 0 0 -0.002,-0.01 C 992.7226,406.70443 966.81486,379.62925 933.27016,374.1927 a 10.442228,10.442228 0 0 0 -0.01,-0.002 l -93.14649,-15.00586 55.25,-76.47071 c 19.89748,-27.53255 19.08102,-64.94921 -1.84375,-91.65429 a 10.442228,10.442228 0 0 0 -0.006,-0.008 C 868.88715,159.68201 840.40008,131.30415 809.0625,106.60156 795.27814,95.71643 778.58497,90.257812 762,90.257812 c -15.61402,0 -31.32205,4.768578 -44.6582,14.509768 l -76.42578,55.2168 -15.00782,-93.242192 a 10.442228,10.442228 0 0 0 -0.002,-0.01172 C 620.47113,33.194646 593.43161,7.1756316 559.72656,3.2304688 539.07108,0.78844122 519.53718,-0.44140625 500,-0.44140625 Z m 0,86.58203125 c 14.10099,0 27.91364,0.908114 41.67578,2.314453 L 563.0918,221.6582 a 10.442228,10.442228 0 0 0 7.64843,8.4375 c 24.88073,6.55771 48.39306,16.38862 70.07618,29.10938 a 10.442228,10.442228 0 0 0 11.40039,-0.54492 l 109.32226,-79.04297 c 21.59648,17.64843 41.29075,37.34322 58.93946,58.93945 l -79.13477,109.32031 a 10.442228,10.442228 0 0 0 -0.54883,11.40625 c 12.73241,21.70297 22.65138,45.21052 29.09961,70.04102 a 10.442228,10.442228 0 0 0 8.44727,7.68359 l 133.20312,21.41602 c 1.40496,13.71612 2.31446,27.57764 2.31446,41.67578 0,14.09922 -0.90846,27.91104 -2.31446,41.67187 l -133.19531,21.31836 a 10.442228,10.442228 0 0 0 -8.45508,7.68555 c -6.44823,24.8305 -16.3672,48.33805 -29.09961,70.04102 a 10.442228,10.442228 0 0 0 0.54492,11.40039 l 79.04493,109.32422 c -17.58545,21.53028 -37.3392,41.2832 -58.94532,58.9414 L 652.11719,741.43945 a 10.442228,10.442228 0 0 0 -11.40039,-0.54492 c -21.68312,12.72076 -45.19545,22.55167 -70.07618,29.10938 a 10.442228,10.442228 0 0 0 -7.64843,8.4375 l -21.41407,133.10351 c -13.71674,1.40508 -27.57893,2.31446 -41.67773,2.31446 -14.09922,0 -27.91104,-0.90846 -41.67187,-2.31446 L 436.91016,778.34961 a 10.442228,10.442228 0 0 0 -7.68555,-8.45508 c -24.8305,-6.44823 -48.33805,-16.3672 -70.04102,-29.09961 a 10.442228,10.442228 0 0 0 -11.40039,0.54492 L 238.45117,820.38867 C 216.8699,802.81083 197.17282,783.06033 179.51562,761.44141 l 79.04493,-109.32422 a 10.442228,10.442228 0 0 0 0.54492,-11.40039 C 246.38471,619.03368 236.5538,595.52135 229.99609,570.64062 a 10.442228,10.442228 0 0 0 -8.44336,-7.65039 L 88.455078,541.66992 C 87.050503,527.95568 86.140625,514.09615 86.140625,500 c 0,-14.10099 0.908114,-27.91364 2.314453,-41.67578 L 221.6582,436.9082 a 10.442228,10.442228 0 0 0 8.44727,-7.68359 c 6.44823,-24.8305 16.3672,-48.33805 29.09961,-70.04102 A 10.442228,10.442228 0 0 0 258.66016,347.7832 L 179.61719,238.46094 c 17.64843,-21.59648 37.34322,-41.29075 58.93945,-58.93946 l 109.32031,79.13477 a 10.442228,10.442228 0 0 0 11.40625,0.54883 c 21.68312,-12.72076 45.19545,-22.55167 70.07618,-29.10938 a 10.442228,10.442228 0 0 0 7.64843,-8.4375 L 458.42578,88.539062 C 472.14253,87.110127 485.93808,86.140625 500,86.140625 Z"
         id="path4" />
      <ellipse
         ry="152.23143"
         rx="152.23087"
         cy="500.00031"
         cx="500.00177"
         id="path1265"
         style="opacity:1;fill:none;fill-opacity:1;stroke:#000000;stroke-width:86.17589569;stroke-linecap:round;stroke-linejoin:bevel;stroke-miterlimit:4;stroke-dasharray:none;stroke-opacity:1" />
    </g>
  </g>
</svg>
